SplineFontDB: 3.0
FontName: andemx
FullName: andemx
FamilyName: andemx
Weight: Regular
Copyright: Copyright (c) 2018, Anthony
UComments: "2018-6-6: Created with FontForge (http://fontforge.org)"
Version: 001.000
ItalicAngle: 0
UnderlinePosition: -1
UnderlineWidth: 0
Ascent: 13
Descent: 3
InvalidEm: 0
LayerCount: 2
Layer: 0 0 "Arri+AOgA-re" 1
Layer: 1 0 "Avant" 0
XUID: [1021 101 -694660715 26831]
FSType: 0
OS2Version: 0
OS2_WeightWidthSlopeOnly: 0
OS2_UseTypoMetrics: 1
CreationTime: 1528289563
ModificationTime: 1528306272
PfmFamily: 17
TTFWeight: 400
TTFWidth: 5
LineGap: 1
VLineGap: 0
OS2TypoAscent: 0
OS2TypoAOffset: 1
OS2TypoDescent: 0
OS2TypoDOffset: 1
OS2TypoLinegap: 1
OS2WinAscent: 0
OS2WinAOffset: 1
OS2WinDescent: 0
OS2WinDOffset: 1
HheadAscent: 0
HheadAOffset: 1
HheadDescent: 0
HheadDOffset: 1
OS2Vendor: 'PfEd'
MarkAttachClasses: 1
DEI: 91125
LangName: 1033
Encoding: ISO8859-1
UnicodeInterp: none
NameList: AGL For New Fonts
DisplaySize: -48
AntiAlias: 1
FitToEm: 0
WinInfo: 0 19 14
BeginPrivate: 0
EndPrivate
TeXData: 1 0 0 346030 173015 115343 626560 1048576 115343 783286 444596 497025 792723 393216 433062 380633 303038 157286 324010 404750 52429 2506097 1059062 262144
BeginChars: 256 110

StartChar: a
Encoding: 97 97 0
Width: 16
VWidth: 0
Flags: HW
LayerCount: 2
Fore
SplineSet
8 1.0576171875 m 1
 7.1904296875 0.419921875 6.1689453125 0.0390625 5.0576171875 0.0390625 c 0
 2.4287109375 0.0390625 0.2978515625 2.1708984375 0.2978515625 4.7998046875 c 0
 0.2978515625 7.4287109375 2.4287109375 9.560546875 5.0576171875 9.560546875 c 0
 7.6875 9.560546875 9.818359375 7.4287109375 9.818359375 4.7998046875 c 2
 9.818359375 0.9482421875 l 2
 9.818359375 0.4462890625 9.4111328125 0.0390625 8.9091796875 0.0390625 c 0
 8.4072265625 0.0390625 8 0.4462890625 8 0.9482421875 c 2
 8 1.0576171875 l 1
5.0576171875 1.857421875 m 0
 6.6826171875 1.857421875 8 3.1748046875 8 4.7998046875 c 0
 8 6.4248046875 6.6826171875 7.7421875 5.0576171875 7.7421875 c 0
 3.43359375 7.7421875 2.1162109375 6.4248046875 2.1162109375 4.7998046875 c 0
 2.1162109375 3.1748046875 3.43359375 1.857421875 5.0576171875 1.857421875 c 0
EndSplineSet
Validated: 1
EndChar

StartChar: b
Encoding: 98 98 1
Width: 16
VWidth: 0
Flags: HW
LayerCount: 2
Fore
SplineSet
1.20703125 12.5029296875 m 0
 1.708984375 12.5029296875 2.1162109375 12.095703125 2.1162109375 11.59375 c 2
 2.1162109375 8.54296875 l 1
 2.92578125 9.1806640625 3.947265625 9.560546875 5.0576171875 9.560546875 c 0
 7.6875 9.560546875 9.818359375 7.4287109375 9.818359375 4.7998046875 c 0
 9.818359375 2.1708984375 7.6875 0.0390625 5.0576171875 0.0390625 c 0
 2.4287109375 0.0390625 0.2978515625 2.1708984375 0.2978515625 4.7998046875 c 2
 0.2978515625 11.59375 l 2
 0.2978515625 12.095703125 0.705078125 12.5029296875 1.20703125 12.5029296875 c 0
5.0576171875 7.7421875 m 0
 3.43359375 7.7421875 2.1162109375 6.4248046875 2.1162109375 4.7998046875 c 0
 2.1162109375 3.1748046875 3.43359375 1.857421875 5.0576171875 1.857421875 c 0
 6.6826171875 1.857421875 8 3.1748046875 8 4.7998046875 c 0
 8 6.4248046875 6.6826171875 7.7421875 5.0576171875 7.7421875 c 0
EndSplineSet
Validated: 1
EndChar

StartChar: c
Encoding: 99 99 2
Width: 16
VWidth: 0
Flags: HW
LayerCount: 2
Fore
SplineSet
1.69140625 1.6337890625 m 0
 -0.1669921875 3.4931640625 -0.1669921875 6.5068359375 1.69140625 8.3662109375 c 0
 3.55078125 10.2255859375 6.5654296875 10.2255859375 8.423828125 8.3662109375 c 0
 8.779296875 8.0107421875 8.779296875 7.435546875 8.423828125 7.080078125 c 0
 8.0693359375 6.7255859375 7.4931640625 6.7255859375 7.138671875 7.080078125 c 0
 5.9892578125 8.2294921875 4.126953125 8.2294921875 2.9775390625 7.080078125 c 0
 1.828125 5.931640625 1.828125 4.068359375 2.9775390625 2.919921875 c 0
 4.126953125 1.7705078125 5.9892578125 1.7705078125 7.138671875 2.919921875 c 0
 7.4931640625 3.2744140625 8.0693359375 3.2744140625 8.423828125 2.919921875 c 0
 8.779296875 2.564453125 8.779296875 1.9892578125 8.423828125 1.6337890625 c 0
 6.5654296875 -0.2255859375 3.55078125 -0.2255859375 1.69140625 1.6337890625 c 0
EndSplineSet
Validated: 33
EndChar

StartChar: d
Encoding: 100 100 3
Width: 16
VWidth: 0
Flags: HW
LayerCount: 2
Fore
SplineSet
8 8.54296875 m 1
 8 11.59375 l 2
 8 12.095703125 8.4072265625 12.5029296875 8.9091796875 12.5029296875 c 0
 9.4111328125 12.5029296875 9.818359375 12.095703125 9.818359375 11.59375 c 2
 9.818359375 4.7998046875 l 2
 9.818359375 2.1708984375 7.6875 0.0400390625 5.0576171875 0.0400390625 c 0
 2.4287109375 0.0400390625 0.2978515625 2.1708984375 0.2978515625 4.7998046875 c 0
 0.2978515625 7.4296875 2.4287109375 9.560546875 5.0576171875 9.560546875 c 0
 6.1689453125 9.560546875 7.1904296875 9.1806640625 8 8.54296875 c 1
5.0576171875 7.7421875 m 0
 3.4326171875 7.7421875 2.1162109375 6.4248046875 2.1162109375 4.7998046875 c 0
 2.1162109375 3.1748046875 3.4326171875 1.8583984375 5.0576171875 1.8583984375 c 0
 6.6826171875 1.8583984375 8 3.1748046875 8 4.7998046875 c 0
 8 6.4248046875 6.6826171875 7.7421875 5.0576171875 7.7421875 c 0
EndSplineSet
Validated: 1
EndChar

StartChar: e
Encoding: 101 101 4
Width: 16
VWidth: 0
Flags: HW
LayerCount: 2
Fore
SplineSet
5.0576171875 9.560546875 m 0
 7.6875 9.560546875 9.818359375 7.4287109375 9.818359375 4.7998046875 c 0
 9.818359375 4.2978515625 9.4111328125 3.890625 8.9091796875 3.890625 c 2
 2.2587890625 3.890625 l 1
 2.6416015625 2.7109375 3.75 1.857421875 5.0576171875 1.857421875 c 0
 5.560546875 1.857421875 5.966796875 1.451171875 5.966796875 0.9482421875 c 0
 5.966796875 0.4462890625 5.560546875 0.0390625 5.0576171875 0.0390625 c 0
 2.4287109375 0.0390625 0.2978515625 2.1708984375 0.2978515625 4.7998046875 c 0
 0.2978515625 7.4287109375 2.4287109375 9.560546875 5.0576171875 9.560546875 c 0
5.0576171875 7.7421875 m 0
 3.75 7.7421875 2.6416015625 6.8896484375 2.2587890625 5.708984375 c 1
 7.857421875 5.708984375 l 1
 7.474609375 6.888671875 6.365234375 7.7421875 5.0576171875 7.7421875 c 0
EndSplineSet
Validated: 1
EndChar

StartChar: f
Encoding: 102 102 5
Width: 16
VWidth: 0
Flags: HW
LayerCount: 2
Fore
SplineSet
0.2978515625 0.9482421875 m 2
 0.2978515625 7.7421875 l 2
 0.2978515625 10.37109375 2.4287109375 12.5029296875 5.0576171875 12.5029296875 c 0
 5.560546875 12.5029296875 5.966796875 12.095703125 5.966796875 11.59375 c 0
 5.966796875 11.0908203125 5.560546875 10.6845703125 5.0576171875 10.6845703125 c 0
 3.75 10.6845703125 2.6416015625 9.8310546875 2.2587890625 8.6513671875 c 1
 3.044921875 9.22265625 4.01171875 9.560546875 5.0576171875 9.560546875 c 0
 5.560546875 9.560546875 5.966796875 9.1533203125 5.966796875 8.6513671875 c 0
 5.966796875 8.1494140625 5.560546875 7.7421875 5.0576171875 7.7421875 c 0
 3.4326171875 7.7421875 2.1162109375 6.4248046875 2.1162109375 4.7998046875 c 2
 2.1162109375 0.9482421875 l 2
 2.1162109375 0.4462890625 1.708984375 0.0390625 1.20703125 0.0390625 c 0
 0.7041015625 0.0390625 0.2978515625 0.4462890625 0.2978515625 0.9482421875 c 2
EndSplineSet
Validated: 1
EndChar

StartChar: g
Encoding: 103 103 6
Width: 16
VWidth: 0
Flags: HW
LayerCount: 2
Fore
SplineSet
7.1376953125 -0.2763671875 m 0
 7.478515625 0.0634765625 7.7177734375 0.4658203125 7.8564453125 0.89453125 c 1
 7.0712890625 0.322265625 6.103515625 -0.0146484375 5.0576171875 -0.0146484375 c 0
 2.4287109375 -0.0146484375 0.2978515625 2.1162109375 0.2978515625 4.74609375 c 0
 0.2978515625 7.375 2.4287109375 9.505859375 5.0576171875 9.505859375 c 0
 6.1689453125 9.505859375 7.1904296875 9.1259765625 8 8.48828125 c 1
 8 8.5966796875 l 2
 8 9.099609375 8.4072265625 9.505859375 8.9091796875 9.505859375 c 0
 9.4111328125 9.505859375 9.818359375 9.099609375 9.818359375 8.5966796875 c 2
 9.818359375 4.74609375 l 1
 9.818359375 1.8037109375 l 2
 9.818359375 0.5849609375 9.353515625 -0.6328125 8.423828125 -1.5625 c 0
 6.564453125 -3.421875 3.55078125 -3.421875 1.69140625 -1.5625 c 0
 1.3359375 -1.20703125 1.3359375 -0.6318359375 1.69140625 -0.2763671875 c 0
 2.046875 0.078125 2.6220703125 0.078125 2.9775390625 -0.2763671875 c 0
 4.1259765625 -1.42578125 5.9892578125 -1.42578125 7.1376953125 -0.2763671875 c 0
5.0576171875 1.8037109375 m 0
 6.6826171875 1.8037109375 8 3.12109375 8 4.74609375 c 0
 8 6.37109375 6.6826171875 7.6875 5.0576171875 7.6875 c 0
 3.4326171875 7.6875 2.1162109375 6.37109375 2.1162109375 4.74609375 c 0
 2.1162109375 3.12109375 3.4326171875 1.8037109375 5.0576171875 1.8037109375 c 0
EndSplineSet
Validated: 33
EndChar

StartChar: h
Encoding: 104 104 7
Width: 16
VWidth: 0
Flags: HW
LayerCount: 2
Fore
SplineSet
0.2978515625 11.59375 m 2
 0.2978515625 12.095703125 0.7041015625 12.5029296875 1.20703125 12.5029296875 c 0
 1.708984375 12.5029296875 2.1162109375 12.095703125 2.1162109375 11.59375 c 2
 2.1162109375 8.54296875 l 1
 2.92578125 9.1806640625 3.947265625 9.560546875 5.0576171875 9.560546875 c 0
 7.6875 9.560546875 9.818359375 7.4287109375 9.818359375 4.7998046875 c 2
 9.818359375 0.9482421875 l 2
 9.818359375 0.4462890625 9.4111328125 0.0390625 8.9091796875 0.0390625 c 0
 8.4072265625 0.0390625 8 0.4462890625 8 0.9482421875 c 2
 8 4.7998046875 l 2
 8 6.4248046875 6.6826171875 7.7421875 5.0576171875 7.7421875 c 0
 3.4326171875 7.7421875 2.1162109375 6.4248046875 2.1162109375 4.7998046875 c 2
 2.1162109375 0.9482421875 l 2
 2.1162109375 0.4462890625 1.708984375 0.0390625 1.20703125 0.0390625 c 0
 0.7041015625 0.0390625 0.2978515625 0.4462890625 0.2978515625 0.9482421875 c 2
 0.2978515625 6.2705078125 l 1
 0.2978515625 11.59375 l 2
EndSplineSet
Validated: 1
EndChar

StartChar: i
Encoding: 105 105 8
Width: 16
VWidth: 0
Flags: HW
LayerCount: 2
Fore
SplineSet
9.818359375 11.59375 m 0
 9.818359375 11.0908203125 9.4111328125 10.6845703125 8.9091796875 10.6845703125 c 0
 8.4072265625 10.6845703125 8 11.0908203125 8 11.59375 c 0
 8 12.095703125 8.4072265625 12.5029296875 8.9091796875 12.5029296875 c 0
 9.4111328125 12.5029296875 9.818359375 12.095703125 9.818359375 11.59375 c 0
9.818359375 0.9482421875 m 2
 9.818359375 0.4462890625 9.4111328125 0.0390625 8.9091796875 0.0390625 c 0
 8.4072265625 0.0390625 8 0.4462890625 8 0.9482421875 c 2
 8 8.6513671875 l 2
 8 9.1533203125 8.4072265625 9.560546875 8.9091796875 9.560546875 c 0
 9.4111328125 9.560546875 9.818359375 9.1533203125 9.818359375 8.6513671875 c 2
 9.818359375 0.9482421875 l 2
EndSplineSet
Validated: 1
EndChar

StartChar: j
Encoding: 106 106 9
Width: 16
VWidth: 0
Flags: HW
LayerCount: 2
Fore
SplineSet
8.423828125 -1.517578125 m 0
 8.0693359375 -1.873046875 7.4931640625 -1.873046875 7.138671875 -1.517578125 c 0
 6.783203125 -1.1630859375 6.783203125 -0.5869140625 7.138671875 -0.232421875 c 0
 7.71484375 0.3447265625 8.0029296875 1.1015625 8 1.857421875 c 2
 8 8.6513671875 l 2
 8 9.1533203125 8.4072265625 9.560546875 8.9091796875 9.560546875 c 0
 9.4111328125 9.560546875 9.818359375 9.1533203125 9.818359375 8.6513671875 c 2
 9.818359375 1.857421875 l 2
 9.8203125 0.6357421875 9.3564453125 -0.5859375 8.423828125 -1.517578125 c 0
8.9091796875 10.6845703125 m 0
 8.4072265625 10.6845703125 8 11.0908203125 8 11.59375 c 0
 8 12.095703125 8.4072265625 12.5029296875 8.9091796875 12.5029296875 c 0
 9.4111328125 12.5029296875 9.818359375 12.095703125 9.818359375 11.59375 c 0
 9.818359375 11.0908203125 9.4111328125 10.6845703125 8.9091796875 10.6845703125 c 0
EndSplineSet
Validated: 33
EndChar

StartChar: k
Encoding: 107 107 10
Width: 16
VWidth: 0
Flags: HW
LayerCount: 2
Fore
SplineSet
2.1162109375 0.9501953125 m 2
 2.1162109375 0.4462890625 1.708984375 0.0390625 1.20703125 0.0390625 c 0
 0.7041015625 0.0390625 0.2978515625 0.4462890625 0.2978515625 0.9501953125 c 2
 0.2978515625 11.59375 l 2
 0.2978515625 12.095703125 0.7041015625 12.5029296875 1.20703125 12.5029296875 c 0
 1.708984375 12.5029296875 2.1162109375 12.095703125 2.1162109375 11.59375 c 2
 2.1162109375 6.9951171875 l 1
 2.89453125 7.7734375 3.7607421875 8.6396484375 4.4150390625 9.2939453125 c 0
 4.5830078125 9.462890625 4.8125 9.5654296875 5.0576171875 9.560546875 c 0
 5.546875 9.5712890625 5.9775390625 9.140625 5.966796875 8.6513671875 c 0
 5.97265625 8.408203125 5.8671875 8.17578125 5.701171875 8.0087890625 c 0
 4.7958984375 7.103515625 3.3974609375 5.705078125 2.4921875 4.7998046875 c 1
 3.37109375 3.9208984375 4.822265625 2.4697265625 5.701171875 1.591796875 c 0
 5.8671875 1.423828125 5.97265625 1.1923828125 5.966796875 0.9482421875 c 0
 5.9775390625 0.4599609375 5.546875 0.029296875 5.0576171875 0.0390625 c 0
 4.8134765625 0.0341796875 4.5830078125 0.138671875 4.4150390625 0.3056640625 c 0
 3.84375 0.876953125 2.908203125 1.8125 2.1162109375 2.60546875 c 1
 2.1162109375 0.9501953125 l 2
EndSplineSet
Validated: 33
EndChar

StartChar: l
Encoding: 108 108 11
Width: 16
VWidth: 0
Flags: HW
LayerCount: 2
Fore
SplineSet
1.20703125 0.0390625 m 0
 0.7041015625 0.0390625 0.2978515625 0.4462890625 0.2978515625 0.9501953125 c 2
 0.2978515625 11.59375 l 2
 0.2978515625 12.095703125 0.7041015625 12.5029296875 1.20703125 12.5029296875 c 0
 1.708984375 12.5029296875 2.1162109375 12.095703125 2.1162109375 11.59375 c 2
 2.1162109375 0.9501953125 l 2
 2.1162109375 0.4462890625 1.708984375 0.0390625 1.20703125 0.0390625 c 0
EndSplineSet
Validated: 1
EndChar

StartChar: m
Encoding: 109 109 12
Width: 16
VWidth: 0
Flags: HW
LayerCount: 2
Fore
SplineSet
4.5419921875 9.8916015625 m 0
 5.962890625 9.8916015625 7.22265625 9.197265625 8 8.1298828125 c 1
 8.77734375 9.197265625 10.037109375 9.8916015625 11.4580078125 9.8916015625 c 0
 13.8193359375 9.8916015625 15.732421875 7.9775390625 15.732421875 5.6162109375 c 2
 15.732421875 2.158203125 l 2
 15.732421875 1.70703125 15.3671875 1.341796875 14.916015625 1.341796875 c 0
 14.4658203125 1.341796875 14.1005859375 1.70703125 14.1005859375 2.158203125 c 2
 14.1005859375 5.6162109375 l 2
 14.1005859375 7.0751953125 12.9169921875 8.2587890625 11.4580078125 8.2587890625 c 0
 9.9990234375 8.2587890625 8.81640625 7.0751953125 8.81640625 5.6162109375 c 2
 8.81640625 2.158203125 l 2
 8.81640625 1.70703125 8.451171875 1.341796875 8 1.341796875 c 0
 7.548828125 1.341796875 7.18359375 1.70703125 7.18359375 2.158203125 c 2
 7.18359375 5.6162109375 l 2
 7.18359375 7.0751953125 6.0009765625 8.2587890625 4.5419921875 8.2587890625 c 0
 3.0830078125 8.2587890625 1.8994140625 7.0751953125 1.8994140625 5.6162109375 c 2
 1.8994140625 2.158203125 l 2
 1.8994140625 1.70703125 1.5341796875 1.341796875 1.083984375 1.341796875 c 0
 0.6328125 1.341796875 0.267578125 1.70703125 0.267578125 2.158203125 c 2
 0.267578125 6.9375 l 1
 0.267578125 9.0751953125 l 2
 0.267578125 9.525390625 0.6328125 9.8916015625 1.0830078125 9.8916015625 c 0
 1.5341796875 9.8916015625 1.8994140625 9.525390625 1.8994140625 9.0751953125 c 2
 1.900390625 8.9775390625 l 1
 2.626953125 9.5498046875 3.544921875 9.8916015625 4.5419921875 9.8916015625 c 0
EndSplineSet
Validated: 1
EndChar

StartChar: n
Encoding: 110 110 13
Width: 16
VWidth: 0
Flags: HW
LayerCount: 2
Fore
SplineSet
0.2978515625 8.6513671875 m 2
 0.2978515625 9.1533203125 0.7041015625 9.560546875 1.20703125 9.560546875 c 0
 1.708984375 9.560546875 2.1162109375 9.1533203125 2.1162109375 8.6513671875 c 2
 2.1162109375 8.54296875 l 1
 2.92578125 9.1806640625 3.947265625 9.560546875 5.0576171875 9.560546875 c 0
 7.6875 9.560546875 9.818359375 7.4287109375 9.818359375 4.7998046875 c 2
 9.818359375 0.9482421875 l 2
 9.818359375 0.4462890625 9.4111328125 0.0390625 8.9091796875 0.0390625 c 0
 8.4072265625 0.0390625 8 0.4462890625 8 0.9482421875 c 2
 8 4.7998046875 l 2
 8 6.4248046875 6.6826171875 7.7421875 5.0576171875 7.7421875 c 0
 3.4326171875 7.7421875 2.1162109375 6.4248046875 2.1162109375 4.7998046875 c 2
 2.1162109375 0.9482421875 l 2
 2.1162109375 0.4462890625 1.708984375 0.0390625 1.20703125 0.0390625 c 0
 0.7041015625 0.0390625 0.2978515625 0.4462890625 0.2978515625 0.9482421875 c 2
 0.2978515625 6.2705078125 l 1
 0.2978515625 8.6513671875 l 2
EndSplineSet
Validated: 1
EndChar

StartChar: o
Encoding: 111 111 14
Width: 16
VWidth: 0
Flags: HW
LayerCount: 2
Fore
SplineSet
5.0576171875 9.560546875 m 0
 7.685546875 9.560546875 9.818359375 7.427734375 9.818359375 4.7998046875 c 0
 9.818359375 4.7998046875 9.818359375 4.7998046875 9.818359375 4.7998046875 c 0
 9.818359375 2.171875 7.685546875 0.0390625 5.0576171875 0.0390625 c 0
 5.0576171875 0.0390625 5.0576171875 0.0390625 5.0576171875 0.0390625 c 0
 2.4306640625 0.0390625 0.2978515625 2.171875 0.2978515625 4.7998046875 c 0
 0.2978515625 4.7998046875 0.2978515625 4.7998046875 0.2978515625 4.7998046875 c 0
 0.2978515625 7.427734375 2.4306640625 9.560546875 5.0576171875 9.560546875 c 0
 5.0576171875 9.560546875 5.0576171875 9.560546875 5.0576171875 9.560546875 c 0
5.0576171875 7.7421875 m 0
 5.0576171875 7.7421875 5.0576171875 7.7421875 5.0576171875 7.7421875 c 0
 3.43359375 7.7421875 2.1162109375 6.423828125 2.1162109375 4.7998046875 c 0
 2.1162109375 4.7998046875 2.1162109375 4.7998046875 2.1162109375 4.7998046875 c 0
 2.1162109375 3.17578125 3.43359375 1.857421875 5.0576171875 1.857421875 c 0
 5.0576171875 1.857421875 5.0576171875 1.857421875 5.0576171875 1.857421875 c 0
 5.0576171875 1.857421875 5.0576171875 1.857421875 5.0576171875 1.857421875 c 0
 6.681640625 1.857421875 8 3.17578125 8 4.7998046875 c 0
 8 4.7998046875 8 4.7998046875 8 4.7998046875 c 0
 8 6.423828125 6.681640625 7.7421875 5.0576171875 7.7421875 c 0
 5.0576171875 7.7421875 5.0576171875 7.7421875 5.0576171875 7.7421875 c 0
EndSplineSet
Validated: 5
EndChar

StartChar: p
Encoding: 112 112 15
Width: 16
VWidth: 0
Flags: HW
LayerCount: 2
Fore
SplineSet
2.1162109375 1.0576171875 m 1
 2.1162109375 -1.9931640625 l 2
 2.1162109375 -2.4951171875 1.708984375 -2.90234375 1.20703125 -2.90234375 c 0
 0.7041015625 -2.90234375 0.2978515625 -2.4951171875 0.2978515625 -1.9931640625 c 2
 0.2978515625 4.7998046875 l 2
 0.2978515625 7.4287109375 2.4287109375 9.560546875 5.0576171875 9.560546875 c 0
 7.6875 9.560546875 9.818359375 7.4287109375 9.818359375 4.7998046875 c 0
 9.818359375 2.1708984375 7.6875 0.0390625 5.0576171875 0.0390625 c 0
 3.947265625 0.0390625 2.92578125 0.419921875 2.1162109375 1.0576171875 c 1
5.0576171875 1.857421875 m 0
 6.6826171875 1.857421875 8 3.1748046875 8 4.7998046875 c 0
 8 6.4248046875 6.6826171875 7.7421875 5.0576171875 7.7421875 c 0
 3.4326171875 7.7421875 2.1162109375 6.4248046875 2.1162109375 4.7998046875 c 0
 2.1162109375 3.1748046875 3.4326171875 1.857421875 5.0576171875 1.857421875 c 0
EndSplineSet
Validated: 1
EndChar

StartChar: q
Encoding: 113 113 16
Width: 16
VWidth: 0
Flags: HW
LayerCount: 2
Fore
SplineSet
8 1.056640625 m 1
 7.1904296875 0.419921875 6.1689453125 0.0390625 5.0576171875 0.0390625 c 0
 2.4287109375 0.0390625 0.2978515625 2.1708984375 0.2978515625 4.7998046875 c 0
 0.2978515625 7.4287109375 2.4287109375 9.560546875 5.0576171875 9.560546875 c 0
 7.6875 9.560546875 9.818359375 7.4287109375 9.818359375 4.7998046875 c 2
 9.818359375 -1.9931640625 l 2
 9.818359375 -2.49609375 9.4111328125 -2.90234375 8.9091796875 -2.90234375 c 0
 8.4072265625 -2.90234375 8 -2.49609375 8 -1.9931640625 c 2
 8 1.056640625 l 1
5.0576171875 1.857421875 m 0
 6.6826171875 1.857421875 8 3.1748046875 8 4.7998046875 c 0
 8 6.4248046875 6.6826171875 7.7421875 5.0576171875 7.7421875 c 0
 3.43359375 7.7421875 2.1162109375 6.4248046875 2.1162109375 4.7998046875 c 0
 2.1162109375 3.1748046875 3.43359375 1.857421875 5.0576171875 1.857421875 c 0
EndSplineSet
Validated: 1
EndChar

StartChar: r
Encoding: 114 114 17
Width: 16
VWidth: 0
Flags: HW
LayerCount: 2
Fore
SplineSet
2.1162109375 4.7998046875 m 2
 2.1162109375 0.9482421875 l 2
 2.1162109375 0.4462890625 1.708984375 0.0390625 1.20703125 0.0390625 c 0
 0.7041015625 0.0390625 0.2978515625 0.4462890625 0.2978515625 0.9482421875 c 2
 0.2978515625 6.2705078125 l 1
 0.2978515625 8.6513671875 l 2
 0.2978515625 9.1533203125 0.7041015625 9.560546875 1.20703125 9.560546875 c 0
 1.708984375 9.560546875 2.1162109375 9.1533203125 2.1162109375 8.6513671875 c 2
 2.1162109375 8.54296875 l 1
 2.92578125 9.1806640625 3.947265625 9.560546875 5.0576171875 9.560546875 c 0
 5.560546875 9.560546875 5.966796875 9.1533203125 5.966796875 8.6513671875 c 0
 5.966796875 8.1494140625 5.560546875 7.7421875 5.0576171875 7.7421875 c 0
 3.4326171875 7.7421875 2.1162109375 6.4248046875 2.1162109375 4.7998046875 c 2
EndSplineSet
Validated: 1
EndChar

StartChar: s
Encoding: 115 115 18
Width: 16
VWidth: 0
Flags: HW
LayerCount: 2
Fore
SplineSet
1.69140625 8.166015625 m 0
 3.55078125 10.025390625 6.5654296875 10.025390625 8.423828125 8.166015625 c 0
 8.779296875 7.8115234375 8.779296875 7.2353515625 8.423828125 6.880859375 c 0
 8.0693359375 6.525390625 7.4931640625 6.525390625 7.138671875 6.880859375 c 0
 6.2138671875 7.8046875 4.8271484375 7.9853515625 3.7216796875 7.421875 c 1
 8.4248046875 2.71875 l 2
 8.779296875 2.3642578125 8.779296875 1.7890625 8.423828125 1.43359375 c 0
 6.5654296875 -0.4248046875 3.55078125 -0.4248046875 1.69140625 1.43359375 c 0
 1.3369140625 1.7890625 1.3369140625 2.3642578125 1.69140625 2.7197265625 c 0
 2.046875 3.07421875 2.6220703125 3.07421875 2.9775390625 2.7197265625 c 0
 3.90234375 1.794921875 5.2890625 1.6142578125 6.39453125 2.177734375 c 1
 1.6904296875 6.8818359375 l 2
 1.3369140625 7.2353515625 1.3369140625 7.8115234375 1.69140625 8.166015625 c 0
EndSplineSet
Validated: 33
EndChar

StartChar: t
Encoding: 116 116 19
Width: 16
VWidth: 0
Flags: HW
LayerCount: 2
Fore
SplineSet
2.1162109375 4.7998046875 m 2
 2.1162109375 0.9482421875 l 2
 2.1162109375 0.4462890625 1.708984375 0.0390625 1.20703125 0.0390625 c 0
 0.7041015625 0.0390625 0.2978515625 0.4462890625 0.2978515625 0.9482421875 c 2
 0.2978515625 6.2705078125 l 1
 0.2978515625 11.59375 l 2
 0.2978515625 12.095703125 0.7041015625 12.5029296875 1.20703125 12.5029296875 c 0
 1.708984375 12.5029296875 2.1162109375 12.095703125 2.1162109375 11.59375 c 2
 2.1162109375 8.54296875 l 1
 2.92578125 9.1806640625 3.947265625 9.560546875 5.0576171875 9.560546875 c 0
 5.560546875 9.560546875 5.966796875 9.1533203125 5.966796875 8.6513671875 c 0
 5.966796875 8.1494140625 5.560546875 7.7421875 5.0576171875 7.7421875 c 0
 3.4326171875 7.7421875 2.1162109375 6.4248046875 2.1162109375 4.7998046875 c 2
EndSplineSet
Validated: 1
EndChar

StartChar: u
Encoding: 117 117 20
Width: 16
VWidth: 0
Flags: HW
LayerCount: 2
Fore
SplineSet
9.818359375 0.9482421875 m 2
 9.818359375 0.4462890625 9.4111328125 0.0390625 8.9091796875 0.0390625 c 0
 8.4072265625 0.0390625 8 0.4462890625 8 0.9482421875 c 2
 8 1.0576171875 l 1
 7.1904296875 0.419921875 6.1689453125 0.0390625 5.0576171875 0.0390625 c 0
 2.4287109375 0.0390625 0.2978515625 2.1708984375 0.2978515625 4.7998046875 c 2
 0.2978515625 8.6513671875 l 2
 0.2978515625 9.1533203125 0.7041015625 9.560546875 1.20703125 9.560546875 c 0
 1.708984375 9.560546875 2.1162109375 9.1533203125 2.1162109375 8.6513671875 c 2
 2.1162109375 4.7998046875 l 2
 2.1162109375 3.1748046875 3.43359375 1.857421875 5.0576171875 1.857421875 c 0
 6.6826171875 1.857421875 8 3.1748046875 8 4.7998046875 c 2
 8 8.6513671875 l 2
 8 9.1533203125 8.4072265625 9.560546875 8.9091796875 9.560546875 c 0
 9.4111328125 9.560546875 9.818359375 9.1533203125 9.818359375 8.6513671875 c 2
 9.818359375 3.3291015625 l 1
 9.818359375 0.9482421875 l 2
EndSplineSet
Validated: 1
EndChar

StartChar: v
Encoding: 118 118 21
Width: 16
VWidth: 0
Flags: HW
LayerCount: 2
Fore
SplineSet
0.2978515625 8.6513671875 m 2
 0.2978515625 9.1533203125 0.7041015625 9.560546875 1.20703125 9.560546875 c 0
 1.708984375 9.560546875 2.1162109375 9.1533203125 2.1162109375 8.6513671875 c 2
 2.1162109375 4.7998046875 l 2
 2.1162109375 3.1748046875 3.43359375 1.857421875 5.0576171875 1.857421875 c 0
 6.6826171875 1.857421875 8 3.1748046875 8 4.7998046875 c 2
 8 8.6513671875 l 2
 8 9.1533203125 8.4072265625 9.560546875 8.9091796875 9.560546875 c 0
 9.4111328125 9.560546875 9.818359375 9.1533203125 9.818359375 8.6513671875 c 2
 9.818359375 4.7998046875 l 2
 9.818359375 2.1708984375 7.6875 0.0390625 5.0576171875 0.0390625 c 0
 2.4287109375 0.0390625 0.2978515625 2.1708984375 0.2978515625 4.7998046875 c 2
 0.2978515625 8.6513671875 l 2
EndSplineSet
Validated: 1
EndChar

StartChar: w
Encoding: 119 119 22
Width: 16
VWidth: 0
Flags: HW
LayerCount: 2
Fore
SplineSet
4.5419921875 1.341796875 m 0
 2.1806640625 1.341796875 0.267578125 3.255859375 0.267578125 5.6162109375 c 2
 0.267578125 9.0751953125 l 2
 0.267578125 9.525390625 0.6328125 9.8916015625 1.083984375 9.8916015625 c 0
 1.5341796875 9.8916015625 1.8994140625 9.525390625 1.8994140625 9.0751953125 c 2
 1.8994140625 5.6162109375 l 2
 1.8994140625 4.1572265625 3.0830078125 2.974609375 4.5419921875 2.974609375 c 0
 6.0009765625 2.974609375 7.18359375 4.1572265625 7.18359375 5.6162109375 c 2
 7.18359375 9.0751953125 l 2
 7.18359375 9.525390625 7.548828125 9.8916015625 8 9.8916015625 c 0
 8.451171875 9.8916015625 8.81640625 9.525390625 8.81640625 9.0751953125 c 2
 8.81640625 5.6162109375 l 2
 8.81640625 4.1572265625 9.9990234375 2.974609375 11.4580078125 2.974609375 c 0
 12.9169921875 2.974609375 14.1005859375 4.1572265625 14.1005859375 5.6162109375 c 2
 14.1005859375 9.0751953125 l 2
 14.1005859375 9.525390625 14.4658203125 9.8916015625 14.916015625 9.8916015625 c 0
 15.3671875 9.8916015625 15.732421875 9.525390625 15.732421875 9.0751953125 c 2
 15.732421875 5.6162109375 l 2
 15.732421875 3.255859375 13.8193359375 1.341796875 11.4580078125 1.341796875 c 0
 10.037109375 1.341796875 8.77734375 2.0361328125 8 3.103515625 c 1
 7.22265625 2.0361328125 5.962890625 1.341796875 4.5419921875 1.341796875 c 0
EndSplineSet
Validated: 1
EndChar

StartChar: x
Encoding: 120 120 23
Width: 16
VWidth: 0
Flags: HW
LayerCount: 2
Fore
SplineSet
8.9091796875 9.560546875 m 0
 9.3984375 9.5712890625 9.8291015625 9.140625 9.818359375 8.6513671875 c 0
 9.8232421875 8.408203125 9.71875 8.17578125 9.552734375 8.0087890625 c 0
 8.6474609375 7.103515625 7.248046875 5.705078125 6.34375 4.7998046875 c 1
 7.22265625 3.9208984375 8.673828125 2.4697265625 9.552734375 1.591796875 c 0
 9.71875 1.423828125 9.8232421875 1.1923828125 9.818359375 0.9482421875 c 0
 9.8291015625 0.4599609375 9.3984375 0.029296875 8.9091796875 0.0390625 c 0
 8.6650390625 0.0341796875 8.43359375 0.138671875 8.2666015625 0.3056640625 c 0
 7.4462890625 1.1259765625 5.8779296875 2.6943359375 5.0576171875 3.5146484375 c 1
 4.1357421875 2.591796875 2.771484375 1.2275390625 1.849609375 0.3056640625 c 0
 1.681640625 0.1376953125 1.4521484375 0.0341796875 1.20703125 0.0390625 c 0
 0.7177734375 0.029296875 0.287109375 0.4599609375 0.2978515625 0.9482421875 c 0
 0.2919921875 1.197265625 0.3916015625 1.423828125 0.5634765625 1.591796875 c 2
 3.7724609375 4.7998046875 l 1
 0.5634765625 8.0087890625 l 2
 0.39453125 8.17578125 0.2919921875 8.4052734375 0.2978515625 8.6513671875 c 0
 0.287109375 9.140625 0.7177734375 9.5712890625 1.20703125 9.560546875 c 0
 1.4521484375 9.5654296875 1.681640625 9.462890625 1.849609375 9.2939453125 c 2
 5.0576171875 6.0859375 l 1
 5.986328125 7.013671875 7.3388671875 8.3662109375 8.2666015625 9.2939453125 c 0
 8.4345703125 9.462890625 8.6640625 9.5654296875 8.9091796875 9.560546875 c 0
EndSplineSet
Validated: 33
EndChar

StartChar: y
Encoding: 121 121 24
Width: 16
VWidth: 0
Flags: HW
LayerCount: 2
Fore
SplineSet
9.818359375 1.8583984375 m 2
 9.818359375 -0.771484375 7.6875 -2.90234375 5.0576171875 -2.90234375 c 0
 4.5556640625 -2.90234375 4.1484375 -2.4951171875 4.1484375 -1.9931640625 c 0
 4.1484375 -1.4912109375 4.5556640625 -1.083984375 5.0576171875 -1.083984375 c 0
 6.365234375 -1.083984375 7.4736328125 -0.23046875 7.857421875 0.94921875 c 1
 7.0712890625 0.376953125 6.1044921875 0.0390625 5.0576171875 0.0390625 c 0
 2.4287109375 0.0390625 0.2978515625 2.1708984375 0.2978515625 4.7998046875 c 2
 0.2978515625 8.6513671875 l 2
 0.2978515625 9.1533203125 0.7041015625 9.560546875 1.20703125 9.560546875 c 0
 1.708984375 9.560546875 2.1162109375 9.1533203125 2.1162109375 8.6513671875 c 2
 2.1162109375 4.7998046875 l 2
 2.1162109375 3.1748046875 3.43359375 1.857421875 5.0576171875 1.857421875 c 0
 6.6826171875 1.857421875 8 3.1748046875 8 4.7998046875 c 2
 8 8.6513671875 l 2
 8 9.1533203125 8.4072265625 9.560546875 8.9091796875 9.560546875 c 0
 9.4111328125 9.560546875 9.818359375 9.1533203125 9.818359375 8.6513671875 c 2
 9.818359375 5.2548828125 l 1
 9.818359375 1.8583984375 l 2
EndSplineSet
Validated: 1
EndChar

StartChar: z
Encoding: 122 122 25
Width: 16
VWidth: 0
Flags: HW
LayerCount: 2
Fore
SplineSet
9.8134765625 0.953125 m 0
 9.8134765625 0.451171875 9.4072265625 0.0439453125 8.904296875 0.046875 c 2
 1.2109375 0.046875 l 2
 0.708984375 0.0439453125 0.3017578125 0.451171875 0.3017578125 0.953125 c 0
 0.3017578125 1.2021484375 0.40234375 1.427734375 0.5634765625 1.591796875 c 2
 6.71484375 7.7421875 l 1
 1.2109375 7.740234375 l 2
 0.708984375 7.7373046875 0.3017578125 8.14453125 0.3017578125 8.646484375 c 0
 0.3017578125 9.1484375 0.708984375 9.5556640625 1.2109375 9.5537109375 c 2
 8.904296875 9.5537109375 l 2
 9.4072265625 9.5556640625 9.8134765625 9.1484375 9.8134765625 8.646484375 c 0
 9.8134765625 8.3984375 9.7138671875 8.1728515625 9.552734375 8.0087890625 c 2
 3.4013671875 1.857421875 l 1
 8.904296875 1.8603515625 l 2
 9.4072265625 1.8623046875 9.8134765625 1.455078125 9.8134765625 0.953125 c 0
EndSplineSet
Validated: 37
EndChar

StartChar: A
Encoding: 65 65 26
Width: 16
VWidth: 0
Flags: HW
LayerCount: 2
Fore
SplineSet
8 1.0576171875 m 1
 7.1904296875 0.419921875 6.1689453125 0.0390625 5.0576171875 0.0390625 c 0
 2.4287109375 0.0390625 0.2978515625 2.1708984375 0.2978515625 4.7998046875 c 0
 0.2978515625 7.4287109375 2.4287109375 9.560546875 5.0576171875 9.560546875 c 0
 7.6875 9.560546875 9.818359375 7.4287109375 9.818359375 4.7998046875 c 2
 9.818359375 0.9482421875 l 2
 9.818359375 0.4462890625 9.4111328125 0.0390625 8.9091796875 0.0390625 c 0
 8.4072265625 0.0390625 8 0.4462890625 8 0.9482421875 c 2
 8 1.0576171875 l 1
5.0576171875 1.857421875 m 0
 6.6826171875 1.857421875 8 3.1748046875 8 4.7998046875 c 0
 8 6.4248046875 6.6826171875 7.7421875 5.0576171875 7.7421875 c 0
 3.43359375 7.7421875 2.1162109375 6.4248046875 2.1162109375 4.7998046875 c 0
 2.1162109375 3.1748046875 3.43359375 1.857421875 5.0576171875 1.857421875 c 0
EndSplineSet
EndChar

StartChar: B
Encoding: 66 66 27
Width: 16
VWidth: 0
Flags: HW
LayerCount: 2
Fore
SplineSet
1.20703125 12.5029296875 m 0
 1.708984375 12.5029296875 2.1162109375 12.095703125 2.1162109375 11.59375 c 2
 2.1162109375 8.54296875 l 1
 2.92578125 9.1806640625 3.947265625 9.560546875 5.0576171875 9.560546875 c 0
 7.6875 9.560546875 9.818359375 7.4287109375 9.818359375 4.7998046875 c 0
 9.818359375 2.1708984375 7.6875 0.0390625 5.0576171875 0.0390625 c 0
 2.4287109375 0.0390625 0.2978515625 2.1708984375 0.2978515625 4.7998046875 c 2
 0.2978515625 11.59375 l 2
 0.2978515625 12.095703125 0.705078125 12.5029296875 1.20703125 12.5029296875 c 0
5.0576171875 7.7421875 m 0
 3.43359375 7.7421875 2.1162109375 6.4248046875 2.1162109375 4.7998046875 c 0
 2.1162109375 3.1748046875 3.43359375 1.857421875 5.0576171875 1.857421875 c 0
 6.6826171875 1.857421875 8 3.1748046875 8 4.7998046875 c 0
 8 6.4248046875 6.6826171875 7.7421875 5.0576171875 7.7421875 c 0
EndSplineSet
EndChar

StartChar: C
Encoding: 67 67 28
Width: 16
VWidth: 0
Flags: HW
LayerCount: 2
Fore
SplineSet
1.69140625 1.6337890625 m 0
 -0.1669921875 3.4931640625 -0.1669921875 6.5068359375 1.69140625 8.3662109375 c 0
 3.55078125 10.2255859375 6.5654296875 10.2255859375 8.423828125 8.3662109375 c 0
 8.779296875 8.0107421875 8.779296875 7.435546875 8.423828125 7.080078125 c 0
 8.0693359375 6.7255859375 7.4931640625 6.7255859375 7.138671875 7.080078125 c 0
 5.9892578125 8.2294921875 4.126953125 8.2294921875 2.9775390625 7.080078125 c 0
 1.828125 5.931640625 1.828125 4.068359375 2.9775390625 2.919921875 c 0
 4.126953125 1.7705078125 5.9892578125 1.7705078125 7.138671875 2.919921875 c 0
 7.4931640625 3.2744140625 8.0693359375 3.2744140625 8.423828125 2.919921875 c 0
 8.779296875 2.564453125 8.779296875 1.9892578125 8.423828125 1.6337890625 c 0
 6.5654296875 -0.2255859375 3.55078125 -0.2255859375 1.69140625 1.6337890625 c 0
EndSplineSet
EndChar

StartChar: D
Encoding: 68 68 29
Width: 16
VWidth: 0
Flags: HW
LayerCount: 2
Fore
SplineSet
8 8.54296875 m 1
 8 11.59375 l 2
 8 12.095703125 8.4072265625 12.5029296875 8.9091796875 12.5029296875 c 0
 9.4111328125 12.5029296875 9.818359375 12.095703125 9.818359375 11.59375 c 2
 9.818359375 4.7998046875 l 2
 9.818359375 2.1708984375 7.6875 0.0400390625 5.0576171875 0.0400390625 c 0
 2.4287109375 0.0400390625 0.2978515625 2.1708984375 0.2978515625 4.7998046875 c 0
 0.2978515625 7.4296875 2.4287109375 9.560546875 5.0576171875 9.560546875 c 0
 6.1689453125 9.560546875 7.1904296875 9.1806640625 8 8.54296875 c 1
5.0576171875 7.7421875 m 0
 3.4326171875 7.7421875 2.1162109375 6.4248046875 2.1162109375 4.7998046875 c 0
 2.1162109375 3.1748046875 3.4326171875 1.8583984375 5.0576171875 1.8583984375 c 0
 6.6826171875 1.8583984375 8 3.1748046875 8 4.7998046875 c 0
 8 6.4248046875 6.6826171875 7.7421875 5.0576171875 7.7421875 c 0
EndSplineSet
EndChar

StartChar: E
Encoding: 69 69 30
Width: 16
VWidth: 0
Flags: HW
LayerCount: 2
Fore
SplineSet
5.0576171875 9.560546875 m 0
 7.6875 9.560546875 9.818359375 7.4287109375 9.818359375 4.7998046875 c 0
 9.818359375 4.2978515625 9.4111328125 3.890625 8.9091796875 3.890625 c 2
 2.2587890625 3.890625 l 1
 2.6416015625 2.7109375 3.75 1.857421875 5.0576171875 1.857421875 c 0
 5.560546875 1.857421875 5.966796875 1.451171875 5.966796875 0.9482421875 c 0
 5.966796875 0.4462890625 5.560546875 0.0390625 5.0576171875 0.0390625 c 0
 2.4287109375 0.0390625 0.2978515625 2.1708984375 0.2978515625 4.7998046875 c 0
 0.2978515625 7.4287109375 2.4287109375 9.560546875 5.0576171875 9.560546875 c 0
5.0576171875 7.7421875 m 0
 3.75 7.7421875 2.6416015625 6.8896484375 2.2587890625 5.708984375 c 1
 7.857421875 5.708984375 l 1
 7.474609375 6.888671875 6.365234375 7.7421875 5.0576171875 7.7421875 c 0
EndSplineSet
EndChar

StartChar: F
Encoding: 70 70 31
Width: 16
VWidth: 0
Flags: HW
LayerCount: 2
Fore
SplineSet
0.2978515625 0.9482421875 m 2
 0.2978515625 7.7421875 l 2
 0.2978515625 10.37109375 2.4287109375 12.5029296875 5.0576171875 12.5029296875 c 0
 5.560546875 12.5029296875 5.966796875 12.095703125 5.966796875 11.59375 c 0
 5.966796875 11.0908203125 5.560546875 10.6845703125 5.0576171875 10.6845703125 c 0
 3.75 10.6845703125 2.6416015625 9.8310546875 2.2587890625 8.6513671875 c 1
 3.044921875 9.22265625 4.01171875 9.560546875 5.0576171875 9.560546875 c 0
 5.560546875 9.560546875 5.966796875 9.1533203125 5.966796875 8.6513671875 c 0
 5.966796875 8.1494140625 5.560546875 7.7421875 5.0576171875 7.7421875 c 0
 3.4326171875 7.7421875 2.1162109375 6.4248046875 2.1162109375 4.7998046875 c 2
 2.1162109375 0.9482421875 l 2
 2.1162109375 0.4462890625 1.708984375 0.0390625 1.20703125 0.0390625 c 0
 0.7041015625 0.0390625 0.2978515625 0.4462890625 0.2978515625 0.9482421875 c 2
EndSplineSet
EndChar

StartChar: G
Encoding: 71 71 32
Width: 16
VWidth: 0
Flags: HW
LayerCount: 2
Fore
SplineSet
7.1376953125 -0.2763671875 m 0
 7.478515625 0.0634765625 7.7177734375 0.4658203125 7.8564453125 0.89453125 c 1
 7.0712890625 0.322265625 6.103515625 -0.0146484375 5.0576171875 -0.0146484375 c 0
 2.4287109375 -0.0146484375 0.2978515625 2.1162109375 0.2978515625 4.74609375 c 0
 0.2978515625 7.375 2.4287109375 9.505859375 5.0576171875 9.505859375 c 0
 6.1689453125 9.505859375 7.1904296875 9.1259765625 8 8.48828125 c 1
 8 8.5966796875 l 2
 8 9.099609375 8.4072265625 9.505859375 8.9091796875 9.505859375 c 0
 9.4111328125 9.505859375 9.818359375 9.099609375 9.818359375 8.5966796875 c 2
 9.818359375 4.74609375 l 1
 9.818359375 1.8037109375 l 2
 9.818359375 0.5849609375 9.353515625 -0.6328125 8.423828125 -1.5625 c 0
 6.564453125 -3.421875 3.55078125 -3.421875 1.69140625 -1.5625 c 0
 1.3359375 -1.20703125 1.3359375 -0.6318359375 1.69140625 -0.2763671875 c 0
 2.046875 0.078125 2.6220703125 0.078125 2.9775390625 -0.2763671875 c 0
 4.1259765625 -1.42578125 5.9892578125 -1.42578125 7.1376953125 -0.2763671875 c 0
5.0576171875 1.8037109375 m 0
 6.6826171875 1.8037109375 8 3.12109375 8 4.74609375 c 0
 8 6.37109375 6.6826171875 7.6875 5.0576171875 7.6875 c 0
 3.4326171875 7.6875 2.1162109375 6.37109375 2.1162109375 4.74609375 c 0
 2.1162109375 3.12109375 3.4326171875 1.8037109375 5.0576171875 1.8037109375 c 0
EndSplineSet
EndChar

StartChar: H
Encoding: 72 72 33
Width: 16
VWidth: 0
Flags: HW
LayerCount: 2
Fore
SplineSet
0.2978515625 11.59375 m 2
 0.2978515625 12.095703125 0.7041015625 12.5029296875 1.20703125 12.5029296875 c 0
 1.708984375 12.5029296875 2.1162109375 12.095703125 2.1162109375 11.59375 c 2
 2.1162109375 8.54296875 l 1
 2.92578125 9.1806640625 3.947265625 9.560546875 5.0576171875 9.560546875 c 0
 7.6875 9.560546875 9.818359375 7.4287109375 9.818359375 4.7998046875 c 2
 9.818359375 0.9482421875 l 2
 9.818359375 0.4462890625 9.4111328125 0.0390625 8.9091796875 0.0390625 c 0
 8.4072265625 0.0390625 8 0.4462890625 8 0.9482421875 c 2
 8 4.7998046875 l 2
 8 6.4248046875 6.6826171875 7.7421875 5.0576171875 7.7421875 c 0
 3.4326171875 7.7421875 2.1162109375 6.4248046875 2.1162109375 4.7998046875 c 2
 2.1162109375 0.9482421875 l 2
 2.1162109375 0.4462890625 1.708984375 0.0390625 1.20703125 0.0390625 c 0
 0.7041015625 0.0390625 0.2978515625 0.4462890625 0.2978515625 0.9482421875 c 2
 0.2978515625 6.2705078125 l 1
 0.2978515625 11.59375 l 2
EndSplineSet
EndChar

StartChar: I
Encoding: 73 73 34
Width: 16
VWidth: 0
Flags: HW
LayerCount: 2
Fore
SplineSet
9.818359375 11.59375 m 0
 9.818359375 11.0908203125 9.4111328125 10.6845703125 8.9091796875 10.6845703125 c 0
 8.4072265625 10.6845703125 8 11.0908203125 8 11.59375 c 0
 8 12.095703125 8.4072265625 12.5029296875 8.9091796875 12.5029296875 c 0
 9.4111328125 12.5029296875 9.818359375 12.095703125 9.818359375 11.59375 c 0
9.818359375 0.9482421875 m 2
 9.818359375 0.4462890625 9.4111328125 0.0390625 8.9091796875 0.0390625 c 0
 8.4072265625 0.0390625 8 0.4462890625 8 0.9482421875 c 2
 8 8.6513671875 l 2
 8 9.1533203125 8.4072265625 9.560546875 8.9091796875 9.560546875 c 0
 9.4111328125 9.560546875 9.818359375 9.1533203125 9.818359375 8.6513671875 c 2
 9.818359375 0.9482421875 l 2
EndSplineSet
EndChar

StartChar: J
Encoding: 74 74 35
Width: 16
VWidth: 0
Flags: HW
LayerCount: 2
Fore
SplineSet
8.423828125 -1.517578125 m 0
 8.0693359375 -1.873046875 7.4931640625 -1.873046875 7.138671875 -1.517578125 c 0
 6.783203125 -1.1630859375 6.783203125 -0.5869140625 7.138671875 -0.232421875 c 0
 7.71484375 0.3447265625 8.0029296875 1.1015625 8 1.857421875 c 2
 8 8.6513671875 l 2
 8 9.1533203125 8.4072265625 9.560546875 8.9091796875 9.560546875 c 0
 9.4111328125 9.560546875 9.818359375 9.1533203125 9.818359375 8.6513671875 c 2
 9.818359375 1.857421875 l 2
 9.8203125 0.6357421875 9.3564453125 -0.5859375 8.423828125 -1.517578125 c 0
8.9091796875 10.6845703125 m 0
 8.4072265625 10.6845703125 8 11.0908203125 8 11.59375 c 0
 8 12.095703125 8.4072265625 12.5029296875 8.9091796875 12.5029296875 c 0
 9.4111328125 12.5029296875 9.818359375 12.095703125 9.818359375 11.59375 c 0
 9.818359375 11.0908203125 9.4111328125 10.6845703125 8.9091796875 10.6845703125 c 0
EndSplineSet
EndChar

StartChar: K
Encoding: 75 75 36
Width: 16
VWidth: 0
Flags: HW
LayerCount: 2
Fore
SplineSet
2.1162109375 0.9501953125 m 2
 2.1162109375 0.4462890625 1.708984375 0.0390625 1.20703125 0.0390625 c 0
 0.7041015625 0.0390625 0.2978515625 0.4462890625 0.2978515625 0.9501953125 c 2
 0.2978515625 11.59375 l 2
 0.2978515625 12.095703125 0.7041015625 12.5029296875 1.20703125 12.5029296875 c 0
 1.708984375 12.5029296875 2.1162109375 12.095703125 2.1162109375 11.59375 c 2
 2.1162109375 6.9951171875 l 1
 2.89453125 7.7734375 3.7607421875 8.6396484375 4.4150390625 9.2939453125 c 0
 4.5830078125 9.462890625 4.8125 9.5654296875 5.0576171875 9.560546875 c 0
 5.546875 9.5712890625 5.9775390625 9.140625 5.966796875 8.6513671875 c 0
 5.97265625 8.408203125 5.8671875 8.17578125 5.701171875 8.0087890625 c 0
 4.7958984375 7.103515625 3.3974609375 5.705078125 2.4921875 4.7998046875 c 1
 3.37109375 3.9208984375 4.822265625 2.4697265625 5.701171875 1.591796875 c 0
 5.8671875 1.423828125 5.97265625 1.1923828125 5.966796875 0.9482421875 c 0
 5.9775390625 0.4599609375 5.546875 0.029296875 5.0576171875 0.0390625 c 0
 4.8134765625 0.0341796875 4.5830078125 0.138671875 4.4150390625 0.3056640625 c 0
 3.84375 0.876953125 2.908203125 1.8125 2.1162109375 2.60546875 c 1
 2.1162109375 0.9501953125 l 2
EndSplineSet
EndChar

StartChar: L
Encoding: 76 76 37
Width: 16
VWidth: 0
Flags: HW
LayerCount: 2
Fore
SplineSet
1.20703125 0.0390625 m 0
 0.7041015625 0.0390625 0.2978515625 0.4462890625 0.2978515625 0.9501953125 c 2
 0.2978515625 11.59375 l 2
 0.2978515625 12.095703125 0.7041015625 12.5029296875 1.20703125 12.5029296875 c 0
 1.708984375 12.5029296875 2.1162109375 12.095703125 2.1162109375 11.59375 c 2
 2.1162109375 0.9501953125 l 2
 2.1162109375 0.4462890625 1.708984375 0.0390625 1.20703125 0.0390625 c 0
EndSplineSet
EndChar

StartChar: M
Encoding: 77 77 38
Width: 16
VWidth: 0
Flags: HW
LayerCount: 2
Fore
SplineSet
4.5419921875 9.8916015625 m 0
 5.962890625 9.8916015625 7.22265625 9.197265625 8 8.1298828125 c 1
 8.77734375 9.197265625 10.037109375 9.8916015625 11.4580078125 9.8916015625 c 0
 13.8193359375 9.8916015625 15.732421875 7.9775390625 15.732421875 5.6162109375 c 2
 15.732421875 2.158203125 l 2
 15.732421875 1.70703125 15.3671875 1.341796875 14.916015625 1.341796875 c 0
 14.4658203125 1.341796875 14.1005859375 1.70703125 14.1005859375 2.158203125 c 2
 14.1005859375 5.6162109375 l 2
 14.1005859375 7.0751953125 12.9169921875 8.2587890625 11.4580078125 8.2587890625 c 0
 9.9990234375 8.2587890625 8.81640625 7.0751953125 8.81640625 5.6162109375 c 2
 8.81640625 2.158203125 l 2
 8.81640625 1.70703125 8.451171875 1.341796875 8 1.341796875 c 0
 7.548828125 1.341796875 7.18359375 1.70703125 7.18359375 2.158203125 c 2
 7.18359375 5.6162109375 l 2
 7.18359375 7.0751953125 6.0009765625 8.2587890625 4.5419921875 8.2587890625 c 0
 3.0830078125 8.2587890625 1.8994140625 7.0751953125 1.8994140625 5.6162109375 c 2
 1.8994140625 2.158203125 l 2
 1.8994140625 1.70703125 1.5341796875 1.341796875 1.083984375 1.341796875 c 0
 0.6328125 1.341796875 0.267578125 1.70703125 0.267578125 2.158203125 c 2
 0.267578125 6.9375 l 1
 0.267578125 9.0751953125 l 2
 0.267578125 9.525390625 0.6328125 9.8916015625 1.0830078125 9.8916015625 c 0
 1.5341796875 9.8916015625 1.8994140625 9.525390625 1.8994140625 9.0751953125 c 2
 1.900390625 8.9775390625 l 1
 2.626953125 9.5498046875 3.544921875 9.8916015625 4.5419921875 9.8916015625 c 0
EndSplineSet
EndChar

StartChar: N
Encoding: 78 78 39
Width: 16
VWidth: 0
Flags: HW
LayerCount: 2
Fore
SplineSet
0.2978515625 8.6513671875 m 2
 0.2978515625 9.1533203125 0.7041015625 9.560546875 1.20703125 9.560546875 c 0
 1.708984375 9.560546875 2.1162109375 9.1533203125 2.1162109375 8.6513671875 c 2
 2.1162109375 8.54296875 l 1
 2.92578125 9.1806640625 3.947265625 9.560546875 5.0576171875 9.560546875 c 0
 7.6875 9.560546875 9.818359375 7.4287109375 9.818359375 4.7998046875 c 2
 9.818359375 0.9482421875 l 2
 9.818359375 0.4462890625 9.4111328125 0.0390625 8.9091796875 0.0390625 c 0
 8.4072265625 0.0390625 8 0.4462890625 8 0.9482421875 c 2
 8 4.7998046875 l 2
 8 6.4248046875 6.6826171875 7.7421875 5.0576171875 7.7421875 c 0
 3.4326171875 7.7421875 2.1162109375 6.4248046875 2.1162109375 4.7998046875 c 2
 2.1162109375 0.9482421875 l 2
 2.1162109375 0.4462890625 1.708984375 0.0390625 1.20703125 0.0390625 c 0
 0.7041015625 0.0390625 0.2978515625 0.4462890625 0.2978515625 0.9482421875 c 2
 0.2978515625 6.2705078125 l 1
 0.2978515625 8.6513671875 l 2
EndSplineSet
EndChar

StartChar: O
Encoding: 79 79 40
Width: 16
VWidth: 0
Flags: HW
LayerCount: 2
Fore
SplineSet
5.0576171875 9.560546875 m 0
 7.685546875 9.560546875 9.818359375 7.427734375 9.818359375 4.7998046875 c 0
 9.818359375 4.7998046875 9.818359375 4.7998046875 9.818359375 4.7998046875 c 0
 9.818359375 2.171875 7.685546875 0.0390625 5.0576171875 0.0390625 c 0
 5.0576171875 0.0390625 5.0576171875 0.0390625 5.0576171875 0.0390625 c 0
 2.4306640625 0.0390625 0.2978515625 2.171875 0.2978515625 4.7998046875 c 0
 0.2978515625 4.7998046875 0.2978515625 4.7998046875 0.2978515625 4.7998046875 c 0
 0.2978515625 7.427734375 2.4306640625 9.560546875 5.0576171875 9.560546875 c 0
 5.0576171875 9.560546875 5.0576171875 9.560546875 5.0576171875 9.560546875 c 0
5.0576171875 7.7421875 m 0
 5.0576171875 7.7421875 5.0576171875 7.7421875 5.0576171875 7.7421875 c 0
 3.43359375 7.7421875 2.1162109375 6.423828125 2.1162109375 4.7998046875 c 0
 2.1162109375 4.7998046875 2.1162109375 4.7998046875 2.1162109375 4.7998046875 c 0
 2.1162109375 3.17578125 3.43359375 1.857421875 5.0576171875 1.857421875 c 0
 5.0576171875 1.857421875 5.0576171875 1.857421875 5.0576171875 1.857421875 c 0
 5.0576171875 1.857421875 5.0576171875 1.857421875 5.0576171875 1.857421875 c 0
 6.681640625 1.857421875 8 3.17578125 8 4.7998046875 c 0
 8 4.7998046875 8 4.7998046875 8 4.7998046875 c 0
 8 6.423828125 6.681640625 7.7421875 5.0576171875 7.7421875 c 0
 5.0576171875 7.7421875 5.0576171875 7.7421875 5.0576171875 7.7421875 c 0
EndSplineSet
EndChar

StartChar: P
Encoding: 80 80 41
Width: 16
VWidth: 0
Flags: HW
LayerCount: 2
Fore
SplineSet
2.1162109375 1.0576171875 m 1
 2.1162109375 -1.9931640625 l 2
 2.1162109375 -2.4951171875 1.708984375 -2.90234375 1.20703125 -2.90234375 c 0
 0.7041015625 -2.90234375 0.2978515625 -2.4951171875 0.2978515625 -1.9931640625 c 2
 0.2978515625 4.7998046875 l 2
 0.2978515625 7.4287109375 2.4287109375 9.560546875 5.0576171875 9.560546875 c 0
 7.6875 9.560546875 9.818359375 7.4287109375 9.818359375 4.7998046875 c 0
 9.818359375 2.1708984375 7.6875 0.0390625 5.0576171875 0.0390625 c 0
 3.947265625 0.0390625 2.92578125 0.419921875 2.1162109375 1.0576171875 c 1
5.0576171875 1.857421875 m 0
 6.6826171875 1.857421875 8 3.1748046875 8 4.7998046875 c 0
 8 6.4248046875 6.6826171875 7.7421875 5.0576171875 7.7421875 c 0
 3.4326171875 7.7421875 2.1162109375 6.4248046875 2.1162109375 4.7998046875 c 0
 2.1162109375 3.1748046875 3.4326171875 1.857421875 5.0576171875 1.857421875 c 0
EndSplineSet
EndChar

StartChar: Q
Encoding: 81 81 42
Width: 16
VWidth: 0
Flags: HW
LayerCount: 2
Fore
SplineSet
8 1.056640625 m 1
 7.1904296875 0.419921875 6.1689453125 0.0390625 5.0576171875 0.0390625 c 0
 2.4287109375 0.0390625 0.2978515625 2.1708984375 0.2978515625 4.7998046875 c 0
 0.2978515625 7.4287109375 2.4287109375 9.560546875 5.0576171875 9.560546875 c 0
 7.6875 9.560546875 9.818359375 7.4287109375 9.818359375 4.7998046875 c 2
 9.818359375 -1.9931640625 l 2
 9.818359375 -2.49609375 9.4111328125 -2.90234375 8.9091796875 -2.90234375 c 0
 8.4072265625 -2.90234375 8 -2.49609375 8 -1.9931640625 c 2
 8 1.056640625 l 1
5.0576171875 1.857421875 m 0
 6.6826171875 1.857421875 8 3.1748046875 8 4.7998046875 c 0
 8 6.4248046875 6.6826171875 7.7421875 5.0576171875 7.7421875 c 0
 3.43359375 7.7421875 2.1162109375 6.4248046875 2.1162109375 4.7998046875 c 0
 2.1162109375 3.1748046875 3.43359375 1.857421875 5.0576171875 1.857421875 c 0
EndSplineSet
EndChar

StartChar: R
Encoding: 82 82 43
Width: 16
VWidth: 0
Flags: HW
LayerCount: 2
Fore
SplineSet
2.1162109375 4.7998046875 m 2
 2.1162109375 0.9482421875 l 2
 2.1162109375 0.4462890625 1.708984375 0.0390625 1.20703125 0.0390625 c 0
 0.7041015625 0.0390625 0.2978515625 0.4462890625 0.2978515625 0.9482421875 c 2
 0.2978515625 6.2705078125 l 1
 0.2978515625 8.6513671875 l 2
 0.2978515625 9.1533203125 0.7041015625 9.560546875 1.20703125 9.560546875 c 0
 1.708984375 9.560546875 2.1162109375 9.1533203125 2.1162109375 8.6513671875 c 2
 2.1162109375 8.54296875 l 1
 2.92578125 9.1806640625 3.947265625 9.560546875 5.0576171875 9.560546875 c 0
 5.560546875 9.560546875 5.966796875 9.1533203125 5.966796875 8.6513671875 c 0
 5.966796875 8.1494140625 5.560546875 7.7421875 5.0576171875 7.7421875 c 0
 3.4326171875 7.7421875 2.1162109375 6.4248046875 2.1162109375 4.7998046875 c 2
EndSplineSet
EndChar

StartChar: S
Encoding: 83 83 44
Width: 16
VWidth: 0
Flags: HW
LayerCount: 2
Fore
SplineSet
1.69140625 8.166015625 m 0
 3.55078125 10.025390625 6.5654296875 10.025390625 8.423828125 8.166015625 c 0
 8.779296875 7.8115234375 8.779296875 7.2353515625 8.423828125 6.880859375 c 0
 8.0693359375 6.525390625 7.4931640625 6.525390625 7.138671875 6.880859375 c 0
 6.2138671875 7.8046875 4.8271484375 7.9853515625 3.7216796875 7.421875 c 1
 8.4248046875 2.71875 l 2
 8.779296875 2.3642578125 8.779296875 1.7890625 8.423828125 1.43359375 c 0
 6.5654296875 -0.4248046875 3.55078125 -0.4248046875 1.69140625 1.43359375 c 0
 1.3369140625 1.7890625 1.3369140625 2.3642578125 1.69140625 2.7197265625 c 0
 2.046875 3.07421875 2.6220703125 3.07421875 2.9775390625 2.7197265625 c 0
 3.90234375 1.794921875 5.2890625 1.6142578125 6.39453125 2.177734375 c 1
 1.6904296875 6.8818359375 l 2
 1.3369140625 7.2353515625 1.3369140625 7.8115234375 1.69140625 8.166015625 c 0
EndSplineSet
EndChar

StartChar: T
Encoding: 84 84 45
Width: 16
VWidth: 0
Flags: HW
LayerCount: 2
Fore
SplineSet
2.1162109375 4.7998046875 m 2
 2.1162109375 0.9482421875 l 2
 2.1162109375 0.4462890625 1.708984375 0.0390625 1.20703125 0.0390625 c 0
 0.7041015625 0.0390625 0.2978515625 0.4462890625 0.2978515625 0.9482421875 c 2
 0.2978515625 6.2705078125 l 1
 0.2978515625 11.59375 l 2
 0.2978515625 12.095703125 0.7041015625 12.5029296875 1.20703125 12.5029296875 c 0
 1.708984375 12.5029296875 2.1162109375 12.095703125 2.1162109375 11.59375 c 2
 2.1162109375 8.54296875 l 1
 2.92578125 9.1806640625 3.947265625 9.560546875 5.0576171875 9.560546875 c 0
 5.560546875 9.560546875 5.966796875 9.1533203125 5.966796875 8.6513671875 c 0
 5.966796875 8.1494140625 5.560546875 7.7421875 5.0576171875 7.7421875 c 0
 3.4326171875 7.7421875 2.1162109375 6.4248046875 2.1162109375 4.7998046875 c 2
EndSplineSet
EndChar

StartChar: U
Encoding: 85 85 46
Width: 16
VWidth: 0
Flags: HW
LayerCount: 2
Fore
SplineSet
9.818359375 0.9482421875 m 2
 9.818359375 0.4462890625 9.4111328125 0.0390625 8.9091796875 0.0390625 c 0
 8.4072265625 0.0390625 8 0.4462890625 8 0.9482421875 c 2
 8 1.0576171875 l 1
 7.1904296875 0.419921875 6.1689453125 0.0390625 5.0576171875 0.0390625 c 0
 2.4287109375 0.0390625 0.2978515625 2.1708984375 0.2978515625 4.7998046875 c 2
 0.2978515625 8.6513671875 l 2
 0.2978515625 9.1533203125 0.7041015625 9.560546875 1.20703125 9.560546875 c 0
 1.708984375 9.560546875 2.1162109375 9.1533203125 2.1162109375 8.6513671875 c 2
 2.1162109375 4.7998046875 l 2
 2.1162109375 3.1748046875 3.43359375 1.857421875 5.0576171875 1.857421875 c 0
 6.6826171875 1.857421875 8 3.1748046875 8 4.7998046875 c 2
 8 8.6513671875 l 2
 8 9.1533203125 8.4072265625 9.560546875 8.9091796875 9.560546875 c 0
 9.4111328125 9.560546875 9.818359375 9.1533203125 9.818359375 8.6513671875 c 2
 9.818359375 3.3291015625 l 1
 9.818359375 0.9482421875 l 2
EndSplineSet
EndChar

StartChar: V
Encoding: 86 86 47
Width: 16
VWidth: 0
Flags: HW
LayerCount: 2
Fore
SplineSet
0.2978515625 8.6513671875 m 2
 0.2978515625 9.1533203125 0.7041015625 9.560546875 1.20703125 9.560546875 c 0
 1.708984375 9.560546875 2.1162109375 9.1533203125 2.1162109375 8.6513671875 c 2
 2.1162109375 4.7998046875 l 2
 2.1162109375 3.1748046875 3.43359375 1.857421875 5.0576171875 1.857421875 c 0
 6.6826171875 1.857421875 8 3.1748046875 8 4.7998046875 c 2
 8 8.6513671875 l 2
 8 9.1533203125 8.4072265625 9.560546875 8.9091796875 9.560546875 c 0
 9.4111328125 9.560546875 9.818359375 9.1533203125 9.818359375 8.6513671875 c 2
 9.818359375 4.7998046875 l 2
 9.818359375 2.1708984375 7.6875 0.0390625 5.0576171875 0.0390625 c 0
 2.4287109375 0.0390625 0.2978515625 2.1708984375 0.2978515625 4.7998046875 c 2
 0.2978515625 8.6513671875 l 2
EndSplineSet
EndChar

StartChar: W
Encoding: 87 87 48
Width: 16
VWidth: 0
Flags: HW
LayerCount: 2
Fore
SplineSet
4.5419921875 1.341796875 m 0
 2.1806640625 1.341796875 0.267578125 3.255859375 0.267578125 5.6162109375 c 2
 0.267578125 9.0751953125 l 2
 0.267578125 9.525390625 0.6328125 9.8916015625 1.083984375 9.8916015625 c 0
 1.5341796875 9.8916015625 1.8994140625 9.525390625 1.8994140625 9.0751953125 c 2
 1.8994140625 5.6162109375 l 2
 1.8994140625 4.1572265625 3.0830078125 2.974609375 4.5419921875 2.974609375 c 0
 6.0009765625 2.974609375 7.18359375 4.1572265625 7.18359375 5.6162109375 c 2
 7.18359375 9.0751953125 l 2
 7.18359375 9.525390625 7.548828125 9.8916015625 8 9.8916015625 c 0
 8.451171875 9.8916015625 8.81640625 9.525390625 8.81640625 9.0751953125 c 2
 8.81640625 5.6162109375 l 2
 8.81640625 4.1572265625 9.9990234375 2.974609375 11.4580078125 2.974609375 c 0
 12.9169921875 2.974609375 14.1005859375 4.1572265625 14.1005859375 5.6162109375 c 2
 14.1005859375 9.0751953125 l 2
 14.1005859375 9.525390625 14.4658203125 9.8916015625 14.916015625 9.8916015625 c 0
 15.3671875 9.8916015625 15.732421875 9.525390625 15.732421875 9.0751953125 c 2
 15.732421875 5.6162109375 l 2
 15.732421875 3.255859375 13.8193359375 1.341796875 11.4580078125 1.341796875 c 0
 10.037109375 1.341796875 8.77734375 2.0361328125 8 3.103515625 c 1
 7.22265625 2.0361328125 5.962890625 1.341796875 4.5419921875 1.341796875 c 0
EndSplineSet
EndChar

StartChar: X
Encoding: 88 88 49
Width: 16
VWidth: 0
Flags: HW
LayerCount: 2
Fore
SplineSet
8.9091796875 9.560546875 m 0
 9.3984375 9.5712890625 9.8291015625 9.140625 9.818359375 8.6513671875 c 0
 9.8232421875 8.408203125 9.71875 8.17578125 9.552734375 8.0087890625 c 0
 8.6474609375 7.103515625 7.248046875 5.705078125 6.34375 4.7998046875 c 1
 7.22265625 3.9208984375 8.673828125 2.4697265625 9.552734375 1.591796875 c 0
 9.71875 1.423828125 9.8232421875 1.1923828125 9.818359375 0.9482421875 c 0
 9.8291015625 0.4599609375 9.3984375 0.029296875 8.9091796875 0.0390625 c 0
 8.6650390625 0.0341796875 8.43359375 0.138671875 8.2666015625 0.3056640625 c 0
 7.4462890625 1.1259765625 5.8779296875 2.6943359375 5.0576171875 3.5146484375 c 1
 4.1357421875 2.591796875 2.771484375 1.2275390625 1.849609375 0.3056640625 c 0
 1.681640625 0.1376953125 1.4521484375 0.0341796875 1.20703125 0.0390625 c 0
 0.7177734375 0.029296875 0.287109375 0.4599609375 0.2978515625 0.9482421875 c 0
 0.2919921875 1.197265625 0.3916015625 1.423828125 0.5634765625 1.591796875 c 2
 3.7724609375 4.7998046875 l 1
 0.5634765625 8.0087890625 l 2
 0.39453125 8.17578125 0.2919921875 8.4052734375 0.2978515625 8.6513671875 c 0
 0.287109375 9.140625 0.7177734375 9.5712890625 1.20703125 9.560546875 c 0
 1.4521484375 9.5654296875 1.681640625 9.462890625 1.849609375 9.2939453125 c 2
 5.0576171875 6.0859375 l 1
 5.986328125 7.013671875 7.3388671875 8.3662109375 8.2666015625 9.2939453125 c 0
 8.4345703125 9.462890625 8.6640625 9.5654296875 8.9091796875 9.560546875 c 0
EndSplineSet
EndChar

StartChar: Y
Encoding: 89 89 50
Width: 16
VWidth: 0
Flags: HW
LayerCount: 2
Fore
SplineSet
9.818359375 1.8583984375 m 2
 9.818359375 -0.771484375 7.6875 -2.90234375 5.0576171875 -2.90234375 c 0
 4.5556640625 -2.90234375 4.1484375 -2.4951171875 4.1484375 -1.9931640625 c 0
 4.1484375 -1.4912109375 4.5556640625 -1.083984375 5.0576171875 -1.083984375 c 0
 6.365234375 -1.083984375 7.4736328125 -0.23046875 7.857421875 0.94921875 c 1
 7.0712890625 0.376953125 6.1044921875 0.0390625 5.0576171875 0.0390625 c 0
 2.4287109375 0.0390625 0.2978515625 2.1708984375 0.2978515625 4.7998046875 c 2
 0.2978515625 8.6513671875 l 2
 0.2978515625 9.1533203125 0.7041015625 9.560546875 1.20703125 9.560546875 c 0
 1.708984375 9.560546875 2.1162109375 9.1533203125 2.1162109375 8.6513671875 c 2
 2.1162109375 4.7998046875 l 2
 2.1162109375 3.1748046875 3.43359375 1.857421875 5.0576171875 1.857421875 c 0
 6.6826171875 1.857421875 8 3.1748046875 8 4.7998046875 c 2
 8 8.6513671875 l 2
 8 9.1533203125 8.4072265625 9.560546875 8.9091796875 9.560546875 c 0
 9.4111328125 9.560546875 9.818359375 9.1533203125 9.818359375 8.6513671875 c 2
 9.818359375 5.2548828125 l 1
 9.818359375 1.8583984375 l 2
EndSplineSet
EndChar

StartChar: Z
Encoding: 90 90 51
Width: 16
VWidth: 0
Flags: HW
LayerCount: 2
Fore
SplineSet
9.8134765625 0.953125 m 0
 9.8134765625 0.451171875 9.4072265625 0.0439453125 8.904296875 0.046875 c 2
 1.2109375 0.046875 l 2
 0.708984375 0.0439453125 0.3017578125 0.451171875 0.3017578125 0.953125 c 0
 0.3017578125 1.2021484375 0.40234375 1.427734375 0.5634765625 1.591796875 c 2
 6.71484375 7.7421875 l 1
 1.2109375 7.740234375 l 2
 0.708984375 7.7373046875 0.3017578125 8.14453125 0.3017578125 8.646484375 c 0
 0.3017578125 9.1484375 0.708984375 9.5556640625 1.2109375 9.5537109375 c 2
 8.904296875 9.5537109375 l 2
 9.4072265625 9.5556640625 9.8134765625 9.1484375 9.8134765625 8.646484375 c 0
 9.8134765625 8.3984375 9.7138671875 8.1728515625 9.552734375 8.0087890625 c 2
 3.4013671875 1.857421875 l 1
 8.904296875 1.8603515625 l 2
 9.4072265625 1.8623046875 9.8134765625 1.455078125 9.8134765625 0.953125 c 0
EndSplineSet
EndChar

StartChar: Eacute
Encoding: 201 201 52
Width: 16
VWidth: 0
Flags: HW
LayerCount: 2
Fore
SplineSet
5.0576171875 9.560546875 m 0
 7.6875 9.560546875 9.818359375 7.4287109375 9.818359375 4.7998046875 c 0
 9.818359375 4.2978515625 9.4111328125 3.890625 8.9091796875 3.890625 c 2
 2.2587890625 3.890625 l 1
 2.6416015625 2.7109375 3.75 1.857421875 5.0576171875 1.857421875 c 0
 5.560546875 1.857421875 5.966796875 1.451171875 5.966796875 0.9482421875 c 0
 5.966796875 0.4462890625 5.560546875 0.0390625 5.0576171875 0.0390625 c 0
 2.4287109375 0.0390625 0.2978515625 2.1708984375 0.2978515625 4.7998046875 c 0
 0.2978515625 7.4287109375 2.4287109375 9.560546875 5.0576171875 9.560546875 c 0
5.0576171875 7.7421875 m 0
 3.75 7.7421875 2.6416015625 6.8896484375 2.2587890625 5.708984375 c 1
 7.857421875 5.708984375 l 1
 7.474609375 6.888671875 6.365234375 7.7421875 5.0576171875 7.7421875 c 0
EndSplineSet
EndChar

StartChar: Egrave
Encoding: 200 200 53
Width: 16
VWidth: 0
Flags: HW
LayerCount: 2
Fore
SplineSet
5.0576171875 9.560546875 m 0
 7.6875 9.560546875 9.818359375 7.4287109375 9.818359375 4.7998046875 c 0
 9.818359375 4.2978515625 9.4111328125 3.890625 8.9091796875 3.890625 c 2
 2.2587890625 3.890625 l 1
 2.6416015625 2.7109375 3.75 1.857421875 5.0576171875 1.857421875 c 0
 5.560546875 1.857421875 5.966796875 1.451171875 5.966796875 0.9482421875 c 0
 5.966796875 0.4462890625 5.560546875 0.0390625 5.0576171875 0.0390625 c 0
 2.4287109375 0.0390625 0.2978515625 2.1708984375 0.2978515625 4.7998046875 c 0
 0.2978515625 7.4287109375 2.4287109375 9.560546875 5.0576171875 9.560546875 c 0
5.0576171875 7.7421875 m 0
 3.75 7.7421875 2.6416015625 6.8896484375 2.2587890625 5.708984375 c 1
 7.857421875 5.708984375 l 1
 7.474609375 6.888671875 6.365234375 7.7421875 5.0576171875 7.7421875 c 0
EndSplineSet
EndChar

StartChar: Ecircumflex
Encoding: 202 202 54
Width: 16
VWidth: 0
Flags: HW
LayerCount: 2
Fore
SplineSet
5.0576171875 9.560546875 m 0
 7.6875 9.560546875 9.818359375 7.4287109375 9.818359375 4.7998046875 c 0
 9.818359375 4.2978515625 9.4111328125 3.890625 8.9091796875 3.890625 c 2
 2.2587890625 3.890625 l 1
 2.6416015625 2.7109375 3.75 1.857421875 5.0576171875 1.857421875 c 0
 5.560546875 1.857421875 5.966796875 1.451171875 5.966796875 0.9482421875 c 0
 5.966796875 0.4462890625 5.560546875 0.0390625 5.0576171875 0.0390625 c 0
 2.4287109375 0.0390625 0.2978515625 2.1708984375 0.2978515625 4.7998046875 c 0
 0.2978515625 7.4287109375 2.4287109375 9.560546875 5.0576171875 9.560546875 c 0
5.0576171875 7.7421875 m 0
 3.75 7.7421875 2.6416015625 6.8896484375 2.2587890625 5.708984375 c 1
 7.857421875 5.708984375 l 1
 7.474609375 6.888671875 6.365234375 7.7421875 5.0576171875 7.7421875 c 0
EndSplineSet
EndChar

StartChar: Edieresis
Encoding: 203 203 55
Width: 16
VWidth: 0
Flags: HW
LayerCount: 2
Fore
SplineSet
5.0576171875 9.560546875 m 0
 7.6875 9.560546875 9.818359375 7.4287109375 9.818359375 4.7998046875 c 0
 9.818359375 4.2978515625 9.4111328125 3.890625 8.9091796875 3.890625 c 2
 2.2587890625 3.890625 l 1
 2.6416015625 2.7109375 3.75 1.857421875 5.0576171875 1.857421875 c 0
 5.560546875 1.857421875 5.966796875 1.451171875 5.966796875 0.9482421875 c 0
 5.966796875 0.4462890625 5.560546875 0.0390625 5.0576171875 0.0390625 c 0
 2.4287109375 0.0390625 0.2978515625 2.1708984375 0.2978515625 4.7998046875 c 0
 0.2978515625 7.4287109375 2.4287109375 9.560546875 5.0576171875 9.560546875 c 0
5.0576171875 7.7421875 m 0
 3.75 7.7421875 2.6416015625 6.8896484375 2.2587890625 5.708984375 c 1
 7.857421875 5.708984375 l 1
 7.474609375 6.888671875 6.365234375 7.7421875 5.0576171875 7.7421875 c 0
EndSplineSet
EndChar

StartChar: edieresis
Encoding: 235 235 56
Width: 16
VWidth: 0
Flags: HW
LayerCount: 2
Fore
SplineSet
5.0576171875 9.560546875 m 0
 7.6875 9.560546875 9.818359375 7.4287109375 9.818359375 4.7998046875 c 0
 9.818359375 4.2978515625 9.4111328125 3.890625 8.9091796875 3.890625 c 2
 2.2587890625 3.890625 l 1
 2.6416015625 2.7109375 3.75 1.857421875 5.0576171875 1.857421875 c 0
 5.560546875 1.857421875 5.966796875 1.451171875 5.966796875 0.9482421875 c 0
 5.966796875 0.4462890625 5.560546875 0.0390625 5.0576171875 0.0390625 c 0
 2.4287109375 0.0390625 0.2978515625 2.1708984375 0.2978515625 4.7998046875 c 0
 0.2978515625 7.4287109375 2.4287109375 9.560546875 5.0576171875 9.560546875 c 0
5.0576171875 7.7421875 m 0
 3.75 7.7421875 2.6416015625 6.8896484375 2.2587890625 5.708984375 c 1
 7.857421875 5.708984375 l 1
 7.474609375 6.888671875 6.365234375 7.7421875 5.0576171875 7.7421875 c 0
EndSplineSet
EndChar

StartChar: ecircumflex
Encoding: 234 234 57
Width: 16
VWidth: 0
Flags: HW
LayerCount: 2
Fore
SplineSet
5.0576171875 9.560546875 m 0
 7.6875 9.560546875 9.818359375 7.4287109375 9.818359375 4.7998046875 c 0
 9.818359375 4.2978515625 9.4111328125 3.890625 8.9091796875 3.890625 c 2
 2.2587890625 3.890625 l 1
 2.6416015625 2.7109375 3.75 1.857421875 5.0576171875 1.857421875 c 0
 5.560546875 1.857421875 5.966796875 1.451171875 5.966796875 0.9482421875 c 0
 5.966796875 0.4462890625 5.560546875 0.0390625 5.0576171875 0.0390625 c 0
 2.4287109375 0.0390625 0.2978515625 2.1708984375 0.2978515625 4.7998046875 c 0
 0.2978515625 7.4287109375 2.4287109375 9.560546875 5.0576171875 9.560546875 c 0
5.0576171875 7.7421875 m 0
 3.75 7.7421875 2.6416015625 6.8896484375 2.2587890625 5.708984375 c 1
 7.857421875 5.708984375 l 1
 7.474609375 6.888671875 6.365234375 7.7421875 5.0576171875 7.7421875 c 0
EndSplineSet
EndChar

StartChar: eacute
Encoding: 233 233 58
Width: 16
VWidth: 0
Flags: HW
LayerCount: 2
Fore
SplineSet
5.0576171875 9.560546875 m 0
 7.6875 9.560546875 9.818359375 7.4287109375 9.818359375 4.7998046875 c 0
 9.818359375 4.2978515625 9.4111328125 3.890625 8.9091796875 3.890625 c 2
 2.2587890625 3.890625 l 1
 2.6416015625 2.7109375 3.75 1.857421875 5.0576171875 1.857421875 c 0
 5.560546875 1.857421875 5.966796875 1.451171875 5.966796875 0.9482421875 c 0
 5.966796875 0.4462890625 5.560546875 0.0390625 5.0576171875 0.0390625 c 0
 2.4287109375 0.0390625 0.2978515625 2.1708984375 0.2978515625 4.7998046875 c 0
 0.2978515625 7.4287109375 2.4287109375 9.560546875 5.0576171875 9.560546875 c 0
5.0576171875 7.7421875 m 0
 3.75 7.7421875 2.6416015625 6.8896484375 2.2587890625 5.708984375 c 1
 7.857421875 5.708984375 l 1
 7.474609375 6.888671875 6.365234375 7.7421875 5.0576171875 7.7421875 c 0
EndSplineSet
EndChar

StartChar: egrave
Encoding: 232 232 59
Width: 16
VWidth: 0
Flags: HW
LayerCount: 2
Fore
SplineSet
5.0576171875 9.560546875 m 0
 7.6875 9.560546875 9.818359375 7.4287109375 9.818359375 4.7998046875 c 0
 9.818359375 4.2978515625 9.4111328125 3.890625 8.9091796875 3.890625 c 2
 2.2587890625 3.890625 l 1
 2.6416015625 2.7109375 3.75 1.857421875 5.0576171875 1.857421875 c 0
 5.560546875 1.857421875 5.966796875 1.451171875 5.966796875 0.9482421875 c 0
 5.966796875 0.4462890625 5.560546875 0.0390625 5.0576171875 0.0390625 c 0
 2.4287109375 0.0390625 0.2978515625 2.1708984375 0.2978515625 4.7998046875 c 0
 0.2978515625 7.4287109375 2.4287109375 9.560546875 5.0576171875 9.560546875 c 0
5.0576171875 7.7421875 m 0
 3.75 7.7421875 2.6416015625 6.8896484375 2.2587890625 5.708984375 c 1
 7.857421875 5.708984375 l 1
 7.474609375 6.888671875 6.365234375 7.7421875 5.0576171875 7.7421875 c 0
EndSplineSet
EndChar

StartChar: Aring
Encoding: 197 197 60
Width: 16
VWidth: 0
Flags: HW
LayerCount: 2
Fore
SplineSet
8 1.0576171875 m 1
 7.1904296875 0.419921875 6.1689453125 0.0390625 5.0576171875 0.0390625 c 0
 2.4287109375 0.0390625 0.2978515625 2.1708984375 0.2978515625 4.7998046875 c 0
 0.2978515625 7.4287109375 2.4287109375 9.560546875 5.0576171875 9.560546875 c 0
 7.6875 9.560546875 9.818359375 7.4287109375 9.818359375 4.7998046875 c 2
 9.818359375 0.9482421875 l 2
 9.818359375 0.4462890625 9.4111328125 0.0390625 8.9091796875 0.0390625 c 0
 8.4072265625 0.0390625 8 0.4462890625 8 0.9482421875 c 2
 8 1.0576171875 l 1
5.0576171875 1.857421875 m 0
 6.6826171875 1.857421875 8 3.1748046875 8 4.7998046875 c 0
 8 6.4248046875 6.6826171875 7.7421875 5.0576171875 7.7421875 c 0
 3.43359375 7.7421875 2.1162109375 6.4248046875 2.1162109375 4.7998046875 c 0
 2.1162109375 3.1748046875 3.43359375 1.857421875 5.0576171875 1.857421875 c 0
EndSplineSet
EndChar

StartChar: Adieresis
Encoding: 196 196 61
Width: 16
VWidth: 0
Flags: HW
LayerCount: 2
Fore
SplineSet
8 1.0576171875 m 1
 7.1904296875 0.419921875 6.1689453125 0.0390625 5.0576171875 0.0390625 c 0
 2.4287109375 0.0390625 0.2978515625 2.1708984375 0.2978515625 4.7998046875 c 0
 0.2978515625 7.4287109375 2.4287109375 9.560546875 5.0576171875 9.560546875 c 0
 7.6875 9.560546875 9.818359375 7.4287109375 9.818359375 4.7998046875 c 2
 9.818359375 0.9482421875 l 2
 9.818359375 0.4462890625 9.4111328125 0.0390625 8.9091796875 0.0390625 c 0
 8.4072265625 0.0390625 8 0.4462890625 8 0.9482421875 c 2
 8 1.0576171875 l 1
5.0576171875 1.857421875 m 0
 6.6826171875 1.857421875 8 3.1748046875 8 4.7998046875 c 0
 8 6.4248046875 6.6826171875 7.7421875 5.0576171875 7.7421875 c 0
 3.43359375 7.7421875 2.1162109375 6.4248046875 2.1162109375 4.7998046875 c 0
 2.1162109375 3.1748046875 3.43359375 1.857421875 5.0576171875 1.857421875 c 0
EndSplineSet
EndChar

StartChar: Atilde
Encoding: 195 195 62
Width: 16
VWidth: 0
Flags: HW
LayerCount: 2
Fore
SplineSet
8 1.0576171875 m 1
 7.1904296875 0.419921875 6.1689453125 0.0390625 5.0576171875 0.0390625 c 0
 2.4287109375 0.0390625 0.2978515625 2.1708984375 0.2978515625 4.7998046875 c 0
 0.2978515625 7.4287109375 2.4287109375 9.560546875 5.0576171875 9.560546875 c 0
 7.6875 9.560546875 9.818359375 7.4287109375 9.818359375 4.7998046875 c 2
 9.818359375 0.9482421875 l 2
 9.818359375 0.4462890625 9.4111328125 0.0390625 8.9091796875 0.0390625 c 0
 8.4072265625 0.0390625 8 0.4462890625 8 0.9482421875 c 2
 8 1.0576171875 l 1
5.0576171875 1.857421875 m 0
 6.6826171875 1.857421875 8 3.1748046875 8 4.7998046875 c 0
 8 6.4248046875 6.6826171875 7.7421875 5.0576171875 7.7421875 c 0
 3.43359375 7.7421875 2.1162109375 6.4248046875 2.1162109375 4.7998046875 c 0
 2.1162109375 3.1748046875 3.43359375 1.857421875 5.0576171875 1.857421875 c 0
EndSplineSet
EndChar

StartChar: Acircumflex
Encoding: 194 194 63
Width: 16
VWidth: 0
Flags: HW
LayerCount: 2
Fore
SplineSet
8 1.0576171875 m 1
 7.1904296875 0.419921875 6.1689453125 0.0390625 5.0576171875 0.0390625 c 0
 2.4287109375 0.0390625 0.2978515625 2.1708984375 0.2978515625 4.7998046875 c 0
 0.2978515625 7.4287109375 2.4287109375 9.560546875 5.0576171875 9.560546875 c 0
 7.6875 9.560546875 9.818359375 7.4287109375 9.818359375 4.7998046875 c 2
 9.818359375 0.9482421875 l 2
 9.818359375 0.4462890625 9.4111328125 0.0390625 8.9091796875 0.0390625 c 0
 8.4072265625 0.0390625 8 0.4462890625 8 0.9482421875 c 2
 8 1.0576171875 l 1
5.0576171875 1.857421875 m 0
 6.6826171875 1.857421875 8 3.1748046875 8 4.7998046875 c 0
 8 6.4248046875 6.6826171875 7.7421875 5.0576171875 7.7421875 c 0
 3.43359375 7.7421875 2.1162109375 6.4248046875 2.1162109375 4.7998046875 c 0
 2.1162109375 3.1748046875 3.43359375 1.857421875 5.0576171875 1.857421875 c 0
EndSplineSet
EndChar

StartChar: Aacute
Encoding: 193 193 64
Width: 16
VWidth: 0
Flags: HW
LayerCount: 2
Fore
SplineSet
8 1.0576171875 m 1
 7.1904296875 0.419921875 6.1689453125 0.0390625 5.0576171875 0.0390625 c 0
 2.4287109375 0.0390625 0.2978515625 2.1708984375 0.2978515625 4.7998046875 c 0
 0.2978515625 7.4287109375 2.4287109375 9.560546875 5.0576171875 9.560546875 c 0
 7.6875 9.560546875 9.818359375 7.4287109375 9.818359375 4.7998046875 c 2
 9.818359375 0.9482421875 l 2
 9.818359375 0.4462890625 9.4111328125 0.0390625 8.9091796875 0.0390625 c 0
 8.4072265625 0.0390625 8 0.4462890625 8 0.9482421875 c 2
 8 1.0576171875 l 1
5.0576171875 1.857421875 m 0
 6.6826171875 1.857421875 8 3.1748046875 8 4.7998046875 c 0
 8 6.4248046875 6.6826171875 7.7421875 5.0576171875 7.7421875 c 0
 3.43359375 7.7421875 2.1162109375 6.4248046875 2.1162109375 4.7998046875 c 0
 2.1162109375 3.1748046875 3.43359375 1.857421875 5.0576171875 1.857421875 c 0
EndSplineSet
EndChar

StartChar: Agrave
Encoding: 192 192 65
Width: 16
VWidth: 0
Flags: HW
LayerCount: 2
Fore
SplineSet
8 1.0576171875 m 1
 7.1904296875 0.419921875 6.1689453125 0.0390625 5.0576171875 0.0390625 c 0
 2.4287109375 0.0390625 0.2978515625 2.1708984375 0.2978515625 4.7998046875 c 0
 0.2978515625 7.4287109375 2.4287109375 9.560546875 5.0576171875 9.560546875 c 0
 7.6875 9.560546875 9.818359375 7.4287109375 9.818359375 4.7998046875 c 2
 9.818359375 0.9482421875 l 2
 9.818359375 0.4462890625 9.4111328125 0.0390625 8.9091796875 0.0390625 c 0
 8.4072265625 0.0390625 8 0.4462890625 8 0.9482421875 c 2
 8 1.0576171875 l 1
5.0576171875 1.857421875 m 0
 6.6826171875 1.857421875 8 3.1748046875 8 4.7998046875 c 0
 8 6.4248046875 6.6826171875 7.7421875 5.0576171875 7.7421875 c 0
 3.43359375 7.7421875 2.1162109375 6.4248046875 2.1162109375 4.7998046875 c 0
 2.1162109375 3.1748046875 3.43359375 1.857421875 5.0576171875 1.857421875 c 0
EndSplineSet
EndChar

StartChar: atilde
Encoding: 227 227 66
Width: 16
VWidth: 0
Flags: HW
LayerCount: 2
Fore
SplineSet
8 1.0576171875 m 1
 7.1904296875 0.419921875 6.1689453125 0.0390625 5.0576171875 0.0390625 c 0
 2.4287109375 0.0390625 0.2978515625 2.1708984375 0.2978515625 4.7998046875 c 0
 0.2978515625 7.4287109375 2.4287109375 9.560546875 5.0576171875 9.560546875 c 0
 7.6875 9.560546875 9.818359375 7.4287109375 9.818359375 4.7998046875 c 2
 9.818359375 0.9482421875 l 2
 9.818359375 0.4462890625 9.4111328125 0.0390625 8.9091796875 0.0390625 c 0
 8.4072265625 0.0390625 8 0.4462890625 8 0.9482421875 c 2
 8 1.0576171875 l 1
5.0576171875 1.857421875 m 0
 6.6826171875 1.857421875 8 3.1748046875 8 4.7998046875 c 0
 8 6.4248046875 6.6826171875 7.7421875 5.0576171875 7.7421875 c 0
 3.43359375 7.7421875 2.1162109375 6.4248046875 2.1162109375 4.7998046875 c 0
 2.1162109375 3.1748046875 3.43359375 1.857421875 5.0576171875 1.857421875 c 0
EndSplineSet
EndChar

StartChar: acircumflex
Encoding: 226 226 67
Width: 16
VWidth: 0
Flags: HW
LayerCount: 2
Fore
SplineSet
8 1.0576171875 m 1
 7.1904296875 0.419921875 6.1689453125 0.0390625 5.0576171875 0.0390625 c 0
 2.4287109375 0.0390625 0.2978515625 2.1708984375 0.2978515625 4.7998046875 c 0
 0.2978515625 7.4287109375 2.4287109375 9.560546875 5.0576171875 9.560546875 c 0
 7.6875 9.560546875 9.818359375 7.4287109375 9.818359375 4.7998046875 c 2
 9.818359375 0.9482421875 l 2
 9.818359375 0.4462890625 9.4111328125 0.0390625 8.9091796875 0.0390625 c 0
 8.4072265625 0.0390625 8 0.4462890625 8 0.9482421875 c 2
 8 1.0576171875 l 1
5.0576171875 1.857421875 m 0
 6.6826171875 1.857421875 8 3.1748046875 8 4.7998046875 c 0
 8 6.4248046875 6.6826171875 7.7421875 5.0576171875 7.7421875 c 0
 3.43359375 7.7421875 2.1162109375 6.4248046875 2.1162109375 4.7998046875 c 0
 2.1162109375 3.1748046875 3.43359375 1.857421875 5.0576171875 1.857421875 c 0
EndSplineSet
EndChar

StartChar: aacute
Encoding: 225 225 68
Width: 16
VWidth: 0
Flags: HW
LayerCount: 2
Fore
SplineSet
8 1.0576171875 m 1
 7.1904296875 0.419921875 6.1689453125 0.0390625 5.0576171875 0.0390625 c 0
 2.4287109375 0.0390625 0.2978515625 2.1708984375 0.2978515625 4.7998046875 c 0
 0.2978515625 7.4287109375 2.4287109375 9.560546875 5.0576171875 9.560546875 c 0
 7.6875 9.560546875 9.818359375 7.4287109375 9.818359375 4.7998046875 c 2
 9.818359375 0.9482421875 l 2
 9.818359375 0.4462890625 9.4111328125 0.0390625 8.9091796875 0.0390625 c 0
 8.4072265625 0.0390625 8 0.4462890625 8 0.9482421875 c 2
 8 1.0576171875 l 1
5.0576171875 1.857421875 m 0
 6.6826171875 1.857421875 8 3.1748046875 8 4.7998046875 c 0
 8 6.4248046875 6.6826171875 7.7421875 5.0576171875 7.7421875 c 0
 3.43359375 7.7421875 2.1162109375 6.4248046875 2.1162109375 4.7998046875 c 0
 2.1162109375 3.1748046875 3.43359375 1.857421875 5.0576171875 1.857421875 c 0
EndSplineSet
EndChar

StartChar: agrave
Encoding: 224 224 69
Width: 16
VWidth: 0
Flags: HW
LayerCount: 2
Fore
SplineSet
8 1.0576171875 m 1
 7.1904296875 0.419921875 6.1689453125 0.0390625 5.0576171875 0.0390625 c 0
 2.4287109375 0.0390625 0.2978515625 2.1708984375 0.2978515625 4.7998046875 c 0
 0.2978515625 7.4287109375 2.4287109375 9.560546875 5.0576171875 9.560546875 c 0
 7.6875 9.560546875 9.818359375 7.4287109375 9.818359375 4.7998046875 c 2
 9.818359375 0.9482421875 l 2
 9.818359375 0.4462890625 9.4111328125 0.0390625 8.9091796875 0.0390625 c 0
 8.4072265625 0.0390625 8 0.4462890625 8 0.9482421875 c 2
 8 1.0576171875 l 1
5.0576171875 1.857421875 m 0
 6.6826171875 1.857421875 8 3.1748046875 8 4.7998046875 c 0
 8 6.4248046875 6.6826171875 7.7421875 5.0576171875 7.7421875 c 0
 3.43359375 7.7421875 2.1162109375 6.4248046875 2.1162109375 4.7998046875 c 0
 2.1162109375 3.1748046875 3.43359375 1.857421875 5.0576171875 1.857421875 c 0
EndSplineSet
EndChar

StartChar: adieresis
Encoding: 228 228 70
Width: 16
VWidth: 0
Flags: HW
LayerCount: 2
Fore
SplineSet
8 1.0576171875 m 1
 7.1904296875 0.419921875 6.1689453125 0.0390625 5.0576171875 0.0390625 c 0
 2.4287109375 0.0390625 0.2978515625 2.1708984375 0.2978515625 4.7998046875 c 0
 0.2978515625 7.4287109375 2.4287109375 9.560546875 5.0576171875 9.560546875 c 0
 7.6875 9.560546875 9.818359375 7.4287109375 9.818359375 4.7998046875 c 2
 9.818359375 0.9482421875 l 2
 9.818359375 0.4462890625 9.4111328125 0.0390625 8.9091796875 0.0390625 c 0
 8.4072265625 0.0390625 8 0.4462890625 8 0.9482421875 c 2
 8 1.0576171875 l 1
5.0576171875 1.857421875 m 0
 6.6826171875 1.857421875 8 3.1748046875 8 4.7998046875 c 0
 8 6.4248046875 6.6826171875 7.7421875 5.0576171875 7.7421875 c 0
 3.43359375 7.7421875 2.1162109375 6.4248046875 2.1162109375 4.7998046875 c 0
 2.1162109375 3.1748046875 3.43359375 1.857421875 5.0576171875 1.857421875 c 0
EndSplineSet
EndChar

StartChar: aring
Encoding: 229 229 71
Width: 16
VWidth: 0
Flags: HW
LayerCount: 2
Fore
SplineSet
8 1.0576171875 m 1
 7.1904296875 0.419921875 6.1689453125 0.0390625 5.0576171875 0.0390625 c 0
 2.4287109375 0.0390625 0.2978515625 2.1708984375 0.2978515625 4.7998046875 c 0
 0.2978515625 7.4287109375 2.4287109375 9.560546875 5.0576171875 9.560546875 c 0
 7.6875 9.560546875 9.818359375 7.4287109375 9.818359375 4.7998046875 c 2
 9.818359375 0.9482421875 l 2
 9.818359375 0.4462890625 9.4111328125 0.0390625 8.9091796875 0.0390625 c 0
 8.4072265625 0.0390625 8 0.4462890625 8 0.9482421875 c 2
 8 1.0576171875 l 1
5.0576171875 1.857421875 m 0
 6.6826171875 1.857421875 8 3.1748046875 8 4.7998046875 c 0
 8 6.4248046875 6.6826171875 7.7421875 5.0576171875 7.7421875 c 0
 3.43359375 7.7421875 2.1162109375 6.4248046875 2.1162109375 4.7998046875 c 0
 2.1162109375 3.1748046875 3.43359375 1.857421875 5.0576171875 1.857421875 c 0
EndSplineSet
EndChar

StartChar: ugrave
Encoding: 249 249 72
Width: 16
VWidth: 0
Flags: HW
LayerCount: 2
Fore
SplineSet
9.818359375 0.9482421875 m 2
 9.818359375 0.4462890625 9.4111328125 0.0390625 8.9091796875 0.0390625 c 0
 8.4072265625 0.0390625 8 0.4462890625 8 0.9482421875 c 2
 8 1.0576171875 l 1
 7.1904296875 0.419921875 6.1689453125 0.0390625 5.0576171875 0.0390625 c 0
 2.4287109375 0.0390625 0.2978515625 2.1708984375 0.2978515625 4.7998046875 c 2
 0.2978515625 8.6513671875 l 2
 0.2978515625 9.1533203125 0.7041015625 9.560546875 1.20703125 9.560546875 c 0
 1.708984375 9.560546875 2.1162109375 9.1533203125 2.1162109375 8.6513671875 c 2
 2.1162109375 4.7998046875 l 2
 2.1162109375 3.1748046875 3.43359375 1.857421875 5.0576171875 1.857421875 c 0
 6.6826171875 1.857421875 8 3.1748046875 8 4.7998046875 c 2
 8 8.6513671875 l 2
 8 9.1533203125 8.4072265625 9.560546875 8.9091796875 9.560546875 c 0
 9.4111328125 9.560546875 9.818359375 9.1533203125 9.818359375 8.6513671875 c 2
 9.818359375 3.3291015625 l 1
 9.818359375 0.9482421875 l 2
EndSplineSet
EndChar

StartChar: uacute
Encoding: 250 250 73
Width: 16
VWidth: 0
Flags: HW
LayerCount: 2
Fore
SplineSet
9.818359375 0.9482421875 m 2
 9.818359375 0.4462890625 9.4111328125 0.0390625 8.9091796875 0.0390625 c 0
 8.4072265625 0.0390625 8 0.4462890625 8 0.9482421875 c 2
 8 1.0576171875 l 1
 7.1904296875 0.419921875 6.1689453125 0.0390625 5.0576171875 0.0390625 c 0
 2.4287109375 0.0390625 0.2978515625 2.1708984375 0.2978515625 4.7998046875 c 2
 0.2978515625 8.6513671875 l 2
 0.2978515625 9.1533203125 0.7041015625 9.560546875 1.20703125 9.560546875 c 0
 1.708984375 9.560546875 2.1162109375 9.1533203125 2.1162109375 8.6513671875 c 2
 2.1162109375 4.7998046875 l 2
 2.1162109375 3.1748046875 3.43359375 1.857421875 5.0576171875 1.857421875 c 0
 6.6826171875 1.857421875 8 3.1748046875 8 4.7998046875 c 2
 8 8.6513671875 l 2
 8 9.1533203125 8.4072265625 9.560546875 8.9091796875 9.560546875 c 0
 9.4111328125 9.560546875 9.818359375 9.1533203125 9.818359375 8.6513671875 c 2
 9.818359375 3.3291015625 l 1
 9.818359375 0.9482421875 l 2
EndSplineSet
EndChar

StartChar: ucircumflex
Encoding: 251 251 74
Width: 16
VWidth: 0
Flags: HW
LayerCount: 2
Fore
SplineSet
9.818359375 0.9482421875 m 2
 9.818359375 0.4462890625 9.4111328125 0.0390625 8.9091796875 0.0390625 c 0
 8.4072265625 0.0390625 8 0.4462890625 8 0.9482421875 c 2
 8 1.0576171875 l 1
 7.1904296875 0.419921875 6.1689453125 0.0390625 5.0576171875 0.0390625 c 0
 2.4287109375 0.0390625 0.2978515625 2.1708984375 0.2978515625 4.7998046875 c 2
 0.2978515625 8.6513671875 l 2
 0.2978515625 9.1533203125 0.7041015625 9.560546875 1.20703125 9.560546875 c 0
 1.708984375 9.560546875 2.1162109375 9.1533203125 2.1162109375 8.6513671875 c 2
 2.1162109375 4.7998046875 l 2
 2.1162109375 3.1748046875 3.43359375 1.857421875 5.0576171875 1.857421875 c 0
 6.6826171875 1.857421875 8 3.1748046875 8 4.7998046875 c 2
 8 8.6513671875 l 2
 8 9.1533203125 8.4072265625 9.560546875 8.9091796875 9.560546875 c 0
 9.4111328125 9.560546875 9.818359375 9.1533203125 9.818359375 8.6513671875 c 2
 9.818359375 3.3291015625 l 1
 9.818359375 0.9482421875 l 2
EndSplineSet
EndChar

StartChar: udieresis
Encoding: 252 252 75
Width: 16
VWidth: 0
Flags: HW
LayerCount: 2
Fore
SplineSet
9.818359375 0.9482421875 m 2
 9.818359375 0.4462890625 9.4111328125 0.0390625 8.9091796875 0.0390625 c 0
 8.4072265625 0.0390625 8 0.4462890625 8 0.9482421875 c 2
 8 1.0576171875 l 1
 7.1904296875 0.419921875 6.1689453125 0.0390625 5.0576171875 0.0390625 c 0
 2.4287109375 0.0390625 0.2978515625 2.1708984375 0.2978515625 4.7998046875 c 2
 0.2978515625 8.6513671875 l 2
 0.2978515625 9.1533203125 0.7041015625 9.560546875 1.20703125 9.560546875 c 0
 1.708984375 9.560546875 2.1162109375 9.1533203125 2.1162109375 8.6513671875 c 2
 2.1162109375 4.7998046875 l 2
 2.1162109375 3.1748046875 3.43359375 1.857421875 5.0576171875 1.857421875 c 0
 6.6826171875 1.857421875 8 3.1748046875 8 4.7998046875 c 2
 8 8.6513671875 l 2
 8 9.1533203125 8.4072265625 9.560546875 8.9091796875 9.560546875 c 0
 9.4111328125 9.560546875 9.818359375 9.1533203125 9.818359375 8.6513671875 c 2
 9.818359375 3.3291015625 l 1
 9.818359375 0.9482421875 l 2
EndSplineSet
EndChar

StartChar: Udieresis
Encoding: 220 220 76
Width: 16
VWidth: 0
Flags: HW
LayerCount: 2
Fore
SplineSet
9.818359375 0.9482421875 m 2
 9.818359375 0.4462890625 9.4111328125 0.0390625 8.9091796875 0.0390625 c 0
 8.4072265625 0.0390625 8 0.4462890625 8 0.9482421875 c 2
 8 1.0576171875 l 1
 7.1904296875 0.419921875 6.1689453125 0.0390625 5.0576171875 0.0390625 c 0
 2.4287109375 0.0390625 0.2978515625 2.1708984375 0.2978515625 4.7998046875 c 2
 0.2978515625 8.6513671875 l 2
 0.2978515625 9.1533203125 0.7041015625 9.560546875 1.20703125 9.560546875 c 0
 1.708984375 9.560546875 2.1162109375 9.1533203125 2.1162109375 8.6513671875 c 2
 2.1162109375 4.7998046875 l 2
 2.1162109375 3.1748046875 3.43359375 1.857421875 5.0576171875 1.857421875 c 0
 6.6826171875 1.857421875 8 3.1748046875 8 4.7998046875 c 2
 8 8.6513671875 l 2
 8 9.1533203125 8.4072265625 9.560546875 8.9091796875 9.560546875 c 0
 9.4111328125 9.560546875 9.818359375 9.1533203125 9.818359375 8.6513671875 c 2
 9.818359375 3.3291015625 l 1
 9.818359375 0.9482421875 l 2
EndSplineSet
EndChar

StartChar: Ucircumflex
Encoding: 219 219 77
Width: 16
VWidth: 0
Flags: HW
LayerCount: 2
Fore
SplineSet
9.818359375 0.9482421875 m 2
 9.818359375 0.4462890625 9.4111328125 0.0390625 8.9091796875 0.0390625 c 0
 8.4072265625 0.0390625 8 0.4462890625 8 0.9482421875 c 2
 8 1.0576171875 l 1
 7.1904296875 0.419921875 6.1689453125 0.0390625 5.0576171875 0.0390625 c 0
 2.4287109375 0.0390625 0.2978515625 2.1708984375 0.2978515625 4.7998046875 c 2
 0.2978515625 8.6513671875 l 2
 0.2978515625 9.1533203125 0.7041015625 9.560546875 1.20703125 9.560546875 c 0
 1.708984375 9.560546875 2.1162109375 9.1533203125 2.1162109375 8.6513671875 c 2
 2.1162109375 4.7998046875 l 2
 2.1162109375 3.1748046875 3.43359375 1.857421875 5.0576171875 1.857421875 c 0
 6.6826171875 1.857421875 8 3.1748046875 8 4.7998046875 c 2
 8 8.6513671875 l 2
 8 9.1533203125 8.4072265625 9.560546875 8.9091796875 9.560546875 c 0
 9.4111328125 9.560546875 9.818359375 9.1533203125 9.818359375 8.6513671875 c 2
 9.818359375 3.3291015625 l 1
 9.818359375 0.9482421875 l 2
EndSplineSet
EndChar

StartChar: Uacute
Encoding: 218 218 78
Width: 16
VWidth: 0
Flags: HW
LayerCount: 2
Fore
SplineSet
9.818359375 0.9482421875 m 2
 9.818359375 0.4462890625 9.4111328125 0.0390625 8.9091796875 0.0390625 c 0
 8.4072265625 0.0390625 8 0.4462890625 8 0.9482421875 c 2
 8 1.0576171875 l 1
 7.1904296875 0.419921875 6.1689453125 0.0390625 5.0576171875 0.0390625 c 0
 2.4287109375 0.0390625 0.2978515625 2.1708984375 0.2978515625 4.7998046875 c 2
 0.2978515625 8.6513671875 l 2
 0.2978515625 9.1533203125 0.7041015625 9.560546875 1.20703125 9.560546875 c 0
 1.708984375 9.560546875 2.1162109375 9.1533203125 2.1162109375 8.6513671875 c 2
 2.1162109375 4.7998046875 l 2
 2.1162109375 3.1748046875 3.43359375 1.857421875 5.0576171875 1.857421875 c 0
 6.6826171875 1.857421875 8 3.1748046875 8 4.7998046875 c 2
 8 8.6513671875 l 2
 8 9.1533203125 8.4072265625 9.560546875 8.9091796875 9.560546875 c 0
 9.4111328125 9.560546875 9.818359375 9.1533203125 9.818359375 8.6513671875 c 2
 9.818359375 3.3291015625 l 1
 9.818359375 0.9482421875 l 2
EndSplineSet
EndChar

StartChar: Ugrave
Encoding: 217 217 79
Width: 16
VWidth: 0
Flags: HW
LayerCount: 2
Fore
SplineSet
9.818359375 0.9482421875 m 2
 9.818359375 0.4462890625 9.4111328125 0.0390625 8.9091796875 0.0390625 c 0
 8.4072265625 0.0390625 8 0.4462890625 8 0.9482421875 c 2
 8 1.0576171875 l 1
 7.1904296875 0.419921875 6.1689453125 0.0390625 5.0576171875 0.0390625 c 0
 2.4287109375 0.0390625 0.2978515625 2.1708984375 0.2978515625 4.7998046875 c 2
 0.2978515625 8.6513671875 l 2
 0.2978515625 9.1533203125 0.7041015625 9.560546875 1.20703125 9.560546875 c 0
 1.708984375 9.560546875 2.1162109375 9.1533203125 2.1162109375 8.6513671875 c 2
 2.1162109375 4.7998046875 l 2
 2.1162109375 3.1748046875 3.43359375 1.857421875 5.0576171875 1.857421875 c 0
 6.6826171875 1.857421875 8 3.1748046875 8 4.7998046875 c 2
 8 8.6513671875 l 2
 8 9.1533203125 8.4072265625 9.560546875 8.9091796875 9.560546875 c 0
 9.4111328125 9.560546875 9.818359375 9.1533203125 9.818359375 8.6513671875 c 2
 9.818359375 3.3291015625 l 1
 9.818359375 0.9482421875 l 2
EndSplineSet
EndChar

StartChar: idieresis
Encoding: 239 239 80
Width: 16
VWidth: 0
Flags: HW
LayerCount: 2
Fore
SplineSet
9.818359375 11.59375 m 0
 9.818359375 11.0908203125 9.4111328125 10.6845703125 8.9091796875 10.6845703125 c 0
 8.4072265625 10.6845703125 8 11.0908203125 8 11.59375 c 0
 8 12.095703125 8.4072265625 12.5029296875 8.9091796875 12.5029296875 c 0
 9.4111328125 12.5029296875 9.818359375 12.095703125 9.818359375 11.59375 c 0
9.818359375 0.9482421875 m 2
 9.818359375 0.4462890625 9.4111328125 0.0390625 8.9091796875 0.0390625 c 0
 8.4072265625 0.0390625 8 0.4462890625 8 0.9482421875 c 2
 8 8.6513671875 l 2
 8 9.1533203125 8.4072265625 9.560546875 8.9091796875 9.560546875 c 0
 9.4111328125 9.560546875 9.818359375 9.1533203125 9.818359375 8.6513671875 c 2
 9.818359375 0.9482421875 l 2
EndSplineSet
EndChar

StartChar: icircumflex
Encoding: 238 238 81
Width: 16
VWidth: 0
Flags: HW
LayerCount: 2
Fore
SplineSet
9.818359375 11.59375 m 0
 9.818359375 11.0908203125 9.4111328125 10.6845703125 8.9091796875 10.6845703125 c 0
 8.4072265625 10.6845703125 8 11.0908203125 8 11.59375 c 0
 8 12.095703125 8.4072265625 12.5029296875 8.9091796875 12.5029296875 c 0
 9.4111328125 12.5029296875 9.818359375 12.095703125 9.818359375 11.59375 c 0
9.818359375 0.9482421875 m 2
 9.818359375 0.4462890625 9.4111328125 0.0390625 8.9091796875 0.0390625 c 0
 8.4072265625 0.0390625 8 0.4462890625 8 0.9482421875 c 2
 8 8.6513671875 l 2
 8 9.1533203125 8.4072265625 9.560546875 8.9091796875 9.560546875 c 0
 9.4111328125 9.560546875 9.818359375 9.1533203125 9.818359375 8.6513671875 c 2
 9.818359375 0.9482421875 l 2
EndSplineSet
EndChar

StartChar: iacute
Encoding: 237 237 82
Width: 16
VWidth: 0
Flags: HW
LayerCount: 2
Fore
SplineSet
9.818359375 11.59375 m 0
 9.818359375 11.0908203125 9.4111328125 10.6845703125 8.9091796875 10.6845703125 c 0
 8.4072265625 10.6845703125 8 11.0908203125 8 11.59375 c 0
 8 12.095703125 8.4072265625 12.5029296875 8.9091796875 12.5029296875 c 0
 9.4111328125 12.5029296875 9.818359375 12.095703125 9.818359375 11.59375 c 0
9.818359375 0.9482421875 m 2
 9.818359375 0.4462890625 9.4111328125 0.0390625 8.9091796875 0.0390625 c 0
 8.4072265625 0.0390625 8 0.4462890625 8 0.9482421875 c 2
 8 8.6513671875 l 2
 8 9.1533203125 8.4072265625 9.560546875 8.9091796875 9.560546875 c 0
 9.4111328125 9.560546875 9.818359375 9.1533203125 9.818359375 8.6513671875 c 2
 9.818359375 0.9482421875 l 2
EndSplineSet
EndChar

StartChar: igrave
Encoding: 236 236 83
Width: 16
VWidth: 0
Flags: HW
LayerCount: 2
Fore
SplineSet
9.818359375 11.59375 m 0
 9.818359375 11.0908203125 9.4111328125 10.6845703125 8.9091796875 10.6845703125 c 0
 8.4072265625 10.6845703125 8 11.0908203125 8 11.59375 c 0
 8 12.095703125 8.4072265625 12.5029296875 8.9091796875 12.5029296875 c 0
 9.4111328125 12.5029296875 9.818359375 12.095703125 9.818359375 11.59375 c 0
9.818359375 0.9482421875 m 2
 9.818359375 0.4462890625 9.4111328125 0.0390625 8.9091796875 0.0390625 c 0
 8.4072265625 0.0390625 8 0.4462890625 8 0.9482421875 c 2
 8 8.6513671875 l 2
 8 9.1533203125 8.4072265625 9.560546875 8.9091796875 9.560546875 c 0
 9.4111328125 9.560546875 9.818359375 9.1533203125 9.818359375 8.6513671875 c 2
 9.818359375 0.9482421875 l 2
EndSplineSet
EndChar

StartChar: Igrave
Encoding: 204 204 84
Width: 16
VWidth: 0
Flags: HW
LayerCount: 2
Fore
SplineSet
9.818359375 11.59375 m 0
 9.818359375 11.0908203125 9.4111328125 10.6845703125 8.9091796875 10.6845703125 c 0
 8.4072265625 10.6845703125 8 11.0908203125 8 11.59375 c 0
 8 12.095703125 8.4072265625 12.5029296875 8.9091796875 12.5029296875 c 0
 9.4111328125 12.5029296875 9.818359375 12.095703125 9.818359375 11.59375 c 0
9.818359375 0.9482421875 m 2
 9.818359375 0.4462890625 9.4111328125 0.0390625 8.9091796875 0.0390625 c 0
 8.4072265625 0.0390625 8 0.4462890625 8 0.9482421875 c 2
 8 8.6513671875 l 2
 8 9.1533203125 8.4072265625 9.560546875 8.9091796875 9.560546875 c 0
 9.4111328125 9.560546875 9.818359375 9.1533203125 9.818359375 8.6513671875 c 2
 9.818359375 0.9482421875 l 2
EndSplineSet
EndChar

StartChar: Iacute
Encoding: 205 205 85
Width: 16
VWidth: 0
Flags: HW
LayerCount: 2
Fore
SplineSet
9.818359375 11.59375 m 0
 9.818359375 11.0908203125 9.4111328125 10.6845703125 8.9091796875 10.6845703125 c 0
 8.4072265625 10.6845703125 8 11.0908203125 8 11.59375 c 0
 8 12.095703125 8.4072265625 12.5029296875 8.9091796875 12.5029296875 c 0
 9.4111328125 12.5029296875 9.818359375 12.095703125 9.818359375 11.59375 c 0
9.818359375 0.9482421875 m 2
 9.818359375 0.4462890625 9.4111328125 0.0390625 8.9091796875 0.0390625 c 0
 8.4072265625 0.0390625 8 0.4462890625 8 0.9482421875 c 2
 8 8.6513671875 l 2
 8 9.1533203125 8.4072265625 9.560546875 8.9091796875 9.560546875 c 0
 9.4111328125 9.560546875 9.818359375 9.1533203125 9.818359375 8.6513671875 c 2
 9.818359375 0.9482421875 l 2
EndSplineSet
EndChar

StartChar: Icircumflex
Encoding: 206 206 86
Width: 16
VWidth: 0
Flags: HW
LayerCount: 2
Fore
SplineSet
9.818359375 11.59375 m 0
 9.818359375 11.0908203125 9.4111328125 10.6845703125 8.9091796875 10.6845703125 c 0
 8.4072265625 10.6845703125 8 11.0908203125 8 11.59375 c 0
 8 12.095703125 8.4072265625 12.5029296875 8.9091796875 12.5029296875 c 0
 9.4111328125 12.5029296875 9.818359375 12.095703125 9.818359375 11.59375 c 0
9.818359375 0.9482421875 m 2
 9.818359375 0.4462890625 9.4111328125 0.0390625 8.9091796875 0.0390625 c 0
 8.4072265625 0.0390625 8 0.4462890625 8 0.9482421875 c 2
 8 8.6513671875 l 2
 8 9.1533203125 8.4072265625 9.560546875 8.9091796875 9.560546875 c 0
 9.4111328125 9.560546875 9.818359375 9.1533203125 9.818359375 8.6513671875 c 2
 9.818359375 0.9482421875 l 2
EndSplineSet
EndChar

StartChar: Idieresis
Encoding: 207 207 87
Width: 16
VWidth: 0
Flags: HW
LayerCount: 2
Fore
SplineSet
9.818359375 11.59375 m 0
 9.818359375 11.0908203125 9.4111328125 10.6845703125 8.9091796875 10.6845703125 c 0
 8.4072265625 10.6845703125 8 11.0908203125 8 11.59375 c 0
 8 12.095703125 8.4072265625 12.5029296875 8.9091796875 12.5029296875 c 0
 9.4111328125 12.5029296875 9.818359375 12.095703125 9.818359375 11.59375 c 0
9.818359375 0.9482421875 m 2
 9.818359375 0.4462890625 9.4111328125 0.0390625 8.9091796875 0.0390625 c 0
 8.4072265625 0.0390625 8 0.4462890625 8 0.9482421875 c 2
 8 8.6513671875 l 2
 8 9.1533203125 8.4072265625 9.560546875 8.9091796875 9.560546875 c 0
 9.4111328125 9.560546875 9.818359375 9.1533203125 9.818359375 8.6513671875 c 2
 9.818359375 0.9482421875 l 2
EndSplineSet
EndChar

StartChar: Eth
Encoding: 208 208 88
Width: 16
VWidth: 0
Flags: HW
LayerCount: 2
Fore
SplineSet
8 8.54296875 m 1
 8 11.59375 l 2
 8 12.095703125 8.4072265625 12.5029296875 8.9091796875 12.5029296875 c 0
 9.4111328125 12.5029296875 9.818359375 12.095703125 9.818359375 11.59375 c 2
 9.818359375 4.7998046875 l 2
 9.818359375 2.1708984375 7.6875 0.0400390625 5.0576171875 0.0400390625 c 0
 2.4287109375 0.0400390625 0.2978515625 2.1708984375 0.2978515625 4.7998046875 c 0
 0.2978515625 7.4296875 2.4287109375 9.560546875 5.0576171875 9.560546875 c 0
 6.1689453125 9.560546875 7.1904296875 9.1806640625 8 8.54296875 c 1
5.0576171875 7.7421875 m 0
 3.4326171875 7.7421875 2.1162109375 6.4248046875 2.1162109375 4.7998046875 c 0
 2.1162109375 3.1748046875 3.4326171875 1.8583984375 5.0576171875 1.8583984375 c 0
 6.6826171875 1.8583984375 8 3.1748046875 8 4.7998046875 c 0
 8 6.4248046875 6.6826171875 7.7421875 5.0576171875 7.7421875 c 0
EndSplineSet
EndChar

StartChar: germandbls
Encoding: 223 223 89
Width: 16
VWidth: 0
Flags: HW
LayerCount: 2
Fore
SplineSet
1.20703125 12.5029296875 m 0
 1.708984375 12.5029296875 2.1162109375 12.095703125 2.1162109375 11.59375 c 2
 2.1162109375 8.54296875 l 1
 2.92578125 9.1806640625 3.947265625 9.560546875 5.0576171875 9.560546875 c 0
 7.6875 9.560546875 9.818359375 7.4287109375 9.818359375 4.7998046875 c 0
 9.818359375 2.1708984375 7.6875 0.0390625 5.0576171875 0.0390625 c 0
 2.4287109375 0.0390625 0.2978515625 2.1708984375 0.2978515625 4.7998046875 c 2
 0.2978515625 11.59375 l 2
 0.2978515625 12.095703125 0.705078125 12.5029296875 1.20703125 12.5029296875 c 0
5.0576171875 7.7421875 m 0
 3.43359375 7.7421875 2.1162109375 6.4248046875 2.1162109375 4.7998046875 c 0
 2.1162109375 3.1748046875 3.43359375 1.857421875 5.0576171875 1.857421875 c 0
 6.6826171875 1.857421875 8 3.1748046875 8 4.7998046875 c 0
 8 6.4248046875 6.6826171875 7.7421875 5.0576171875 7.7421875 c 0
EndSplineSet
EndChar

StartChar: ograve
Encoding: 242 242 90
Width: 16
VWidth: 0
Flags: HW
LayerCount: 2
Fore
SplineSet
5.0576171875 9.560546875 m 0
 7.685546875 9.560546875 9.818359375 7.427734375 9.818359375 4.7998046875 c 0
 9.818359375 4.7998046875 9.818359375 4.7998046875 9.818359375 4.7998046875 c 0
 9.818359375 2.171875 7.685546875 0.0390625 5.0576171875 0.0390625 c 0
 5.0576171875 0.0390625 5.0576171875 0.0390625 5.0576171875 0.0390625 c 0
 2.4306640625 0.0390625 0.2978515625 2.171875 0.2978515625 4.7998046875 c 0
 0.2978515625 4.7998046875 0.2978515625 4.7998046875 0.2978515625 4.7998046875 c 0
 0.2978515625 7.427734375 2.4306640625 9.560546875 5.0576171875 9.560546875 c 0
 5.0576171875 9.560546875 5.0576171875 9.560546875 5.0576171875 9.560546875 c 0
5.0576171875 7.7421875 m 0
 5.0576171875 7.7421875 5.0576171875 7.7421875 5.0576171875 7.7421875 c 0
 3.43359375 7.7421875 2.1162109375 6.423828125 2.1162109375 4.7998046875 c 0
 2.1162109375 4.7998046875 2.1162109375 4.7998046875 2.1162109375 4.7998046875 c 0
 2.1162109375 3.17578125 3.43359375 1.857421875 5.0576171875 1.857421875 c 0
 5.0576171875 1.857421875 5.0576171875 1.857421875 5.0576171875 1.857421875 c 0
 5.0576171875 1.857421875 5.0576171875 1.857421875 5.0576171875 1.857421875 c 0
 6.681640625 1.857421875 8 3.17578125 8 4.7998046875 c 0
 8 4.7998046875 8 4.7998046875 8 4.7998046875 c 0
 8 6.423828125 6.681640625 7.7421875 5.0576171875 7.7421875 c 0
 5.0576171875 7.7421875 5.0576171875 7.7421875 5.0576171875 7.7421875 c 0
EndSplineSet
EndChar

StartChar: oacute
Encoding: 243 243 91
Width: 16
VWidth: 0
Flags: HW
LayerCount: 2
Fore
SplineSet
5.0576171875 9.560546875 m 0
 7.685546875 9.560546875 9.818359375 7.427734375 9.818359375 4.7998046875 c 0
 9.818359375 4.7998046875 9.818359375 4.7998046875 9.818359375 4.7998046875 c 0
 9.818359375 2.171875 7.685546875 0.0390625 5.0576171875 0.0390625 c 0
 5.0576171875 0.0390625 5.0576171875 0.0390625 5.0576171875 0.0390625 c 0
 2.4306640625 0.0390625 0.2978515625 2.171875 0.2978515625 4.7998046875 c 0
 0.2978515625 4.7998046875 0.2978515625 4.7998046875 0.2978515625 4.7998046875 c 0
 0.2978515625 7.427734375 2.4306640625 9.560546875 5.0576171875 9.560546875 c 0
 5.0576171875 9.560546875 5.0576171875 9.560546875 5.0576171875 9.560546875 c 0
5.0576171875 7.7421875 m 0
 5.0576171875 7.7421875 5.0576171875 7.7421875 5.0576171875 7.7421875 c 0
 3.43359375 7.7421875 2.1162109375 6.423828125 2.1162109375 4.7998046875 c 0
 2.1162109375 4.7998046875 2.1162109375 4.7998046875 2.1162109375 4.7998046875 c 0
 2.1162109375 3.17578125 3.43359375 1.857421875 5.0576171875 1.857421875 c 0
 5.0576171875 1.857421875 5.0576171875 1.857421875 5.0576171875 1.857421875 c 0
 5.0576171875 1.857421875 5.0576171875 1.857421875 5.0576171875 1.857421875 c 0
 6.681640625 1.857421875 8 3.17578125 8 4.7998046875 c 0
 8 4.7998046875 8 4.7998046875 8 4.7998046875 c 0
 8 6.423828125 6.681640625 7.7421875 5.0576171875 7.7421875 c 0
 5.0576171875 7.7421875 5.0576171875 7.7421875 5.0576171875 7.7421875 c 0
EndSplineSet
EndChar

StartChar: ocircumflex
Encoding: 244 244 92
Width: 16
VWidth: 0
Flags: HW
LayerCount: 2
Fore
SplineSet
5.0576171875 9.560546875 m 0
 7.685546875 9.560546875 9.818359375 7.427734375 9.818359375 4.7998046875 c 0
 9.818359375 4.7998046875 9.818359375 4.7998046875 9.818359375 4.7998046875 c 0
 9.818359375 2.171875 7.685546875 0.0390625 5.0576171875 0.0390625 c 0
 5.0576171875 0.0390625 5.0576171875 0.0390625 5.0576171875 0.0390625 c 0
 2.4306640625 0.0390625 0.2978515625 2.171875 0.2978515625 4.7998046875 c 0
 0.2978515625 4.7998046875 0.2978515625 4.7998046875 0.2978515625 4.7998046875 c 0
 0.2978515625 7.427734375 2.4306640625 9.560546875 5.0576171875 9.560546875 c 0
 5.0576171875 9.560546875 5.0576171875 9.560546875 5.0576171875 9.560546875 c 0
5.0576171875 7.7421875 m 0
 5.0576171875 7.7421875 5.0576171875 7.7421875 5.0576171875 7.7421875 c 0
 3.43359375 7.7421875 2.1162109375 6.423828125 2.1162109375 4.7998046875 c 0
 2.1162109375 4.7998046875 2.1162109375 4.7998046875 2.1162109375 4.7998046875 c 0
 2.1162109375 3.17578125 3.43359375 1.857421875 5.0576171875 1.857421875 c 0
 5.0576171875 1.857421875 5.0576171875 1.857421875 5.0576171875 1.857421875 c 0
 5.0576171875 1.857421875 5.0576171875 1.857421875 5.0576171875 1.857421875 c 0
 6.681640625 1.857421875 8 3.17578125 8 4.7998046875 c 0
 8 4.7998046875 8 4.7998046875 8 4.7998046875 c 0
 8 6.423828125 6.681640625 7.7421875 5.0576171875 7.7421875 c 0
 5.0576171875 7.7421875 5.0576171875 7.7421875 5.0576171875 7.7421875 c 0
EndSplineSet
EndChar

StartChar: otilde
Encoding: 245 245 93
Width: 16
VWidth: 0
Flags: HW
LayerCount: 2
Fore
SplineSet
5.0576171875 9.560546875 m 0
 7.685546875 9.560546875 9.818359375 7.427734375 9.818359375 4.7998046875 c 0
 9.818359375 4.7998046875 9.818359375 4.7998046875 9.818359375 4.7998046875 c 0
 9.818359375 2.171875 7.685546875 0.0390625 5.0576171875 0.0390625 c 0
 5.0576171875 0.0390625 5.0576171875 0.0390625 5.0576171875 0.0390625 c 0
 2.4306640625 0.0390625 0.2978515625 2.171875 0.2978515625 4.7998046875 c 0
 0.2978515625 4.7998046875 0.2978515625 4.7998046875 0.2978515625 4.7998046875 c 0
 0.2978515625 7.427734375 2.4306640625 9.560546875 5.0576171875 9.560546875 c 0
 5.0576171875 9.560546875 5.0576171875 9.560546875 5.0576171875 9.560546875 c 0
5.0576171875 7.7421875 m 0
 5.0576171875 7.7421875 5.0576171875 7.7421875 5.0576171875 7.7421875 c 0
 3.43359375 7.7421875 2.1162109375 6.423828125 2.1162109375 4.7998046875 c 0
 2.1162109375 4.7998046875 2.1162109375 4.7998046875 2.1162109375 4.7998046875 c 0
 2.1162109375 3.17578125 3.43359375 1.857421875 5.0576171875 1.857421875 c 0
 5.0576171875 1.857421875 5.0576171875 1.857421875 5.0576171875 1.857421875 c 0
 5.0576171875 1.857421875 5.0576171875 1.857421875 5.0576171875 1.857421875 c 0
 6.681640625 1.857421875 8 3.17578125 8 4.7998046875 c 0
 8 4.7998046875 8 4.7998046875 8 4.7998046875 c 0
 8 6.423828125 6.681640625 7.7421875 5.0576171875 7.7421875 c 0
 5.0576171875 7.7421875 5.0576171875 7.7421875 5.0576171875 7.7421875 c 0
EndSplineSet
EndChar

StartChar: odieresis
Encoding: 246 246 94
Width: 16
VWidth: 0
Flags: HW
LayerCount: 2
Fore
SplineSet
5.0576171875 9.560546875 m 0
 7.685546875 9.560546875 9.818359375 7.427734375 9.818359375 4.7998046875 c 0
 9.818359375 4.7998046875 9.818359375 4.7998046875 9.818359375 4.7998046875 c 0
 9.818359375 2.171875 7.685546875 0.0390625 5.0576171875 0.0390625 c 0
 5.0576171875 0.0390625 5.0576171875 0.0390625 5.0576171875 0.0390625 c 0
 2.4306640625 0.0390625 0.2978515625 2.171875 0.2978515625 4.7998046875 c 0
 0.2978515625 4.7998046875 0.2978515625 4.7998046875 0.2978515625 4.7998046875 c 0
 0.2978515625 7.427734375 2.4306640625 9.560546875 5.0576171875 9.560546875 c 0
 5.0576171875 9.560546875 5.0576171875 9.560546875 5.0576171875 9.560546875 c 0
5.0576171875 7.7421875 m 0
 5.0576171875 7.7421875 5.0576171875 7.7421875 5.0576171875 7.7421875 c 0
 3.43359375 7.7421875 2.1162109375 6.423828125 2.1162109375 4.7998046875 c 0
 2.1162109375 4.7998046875 2.1162109375 4.7998046875 2.1162109375 4.7998046875 c 0
 2.1162109375 3.17578125 3.43359375 1.857421875 5.0576171875 1.857421875 c 0
 5.0576171875 1.857421875 5.0576171875 1.857421875 5.0576171875 1.857421875 c 0
 5.0576171875 1.857421875 5.0576171875 1.857421875 5.0576171875 1.857421875 c 0
 6.681640625 1.857421875 8 3.17578125 8 4.7998046875 c 0
 8 4.7998046875 8 4.7998046875 8 4.7998046875 c 0
 8 6.423828125 6.681640625 7.7421875 5.0576171875 7.7421875 c 0
 5.0576171875 7.7421875 5.0576171875 7.7421875 5.0576171875 7.7421875 c 0
EndSplineSet
EndChar

StartChar: Ocircumflex
Encoding: 212 212 95
Width: 16
VWidth: 0
Flags: HW
LayerCount: 2
Fore
SplineSet
5.0576171875 9.560546875 m 0
 7.685546875 9.560546875 9.818359375 7.427734375 9.818359375 4.7998046875 c 0
 9.818359375 4.7998046875 9.818359375 4.7998046875 9.818359375 4.7998046875 c 0
 9.818359375 2.171875 7.685546875 0.0390625 5.0576171875 0.0390625 c 0
 5.0576171875 0.0390625 5.0576171875 0.0390625 5.0576171875 0.0390625 c 0
 2.4306640625 0.0390625 0.2978515625 2.171875 0.2978515625 4.7998046875 c 0
 0.2978515625 4.7998046875 0.2978515625 4.7998046875 0.2978515625 4.7998046875 c 0
 0.2978515625 7.427734375 2.4306640625 9.560546875 5.0576171875 9.560546875 c 0
 5.0576171875 9.560546875 5.0576171875 9.560546875 5.0576171875 9.560546875 c 0
5.0576171875 7.7421875 m 0
 5.0576171875 7.7421875 5.0576171875 7.7421875 5.0576171875 7.7421875 c 0
 3.43359375 7.7421875 2.1162109375 6.423828125 2.1162109375 4.7998046875 c 0
 2.1162109375 4.7998046875 2.1162109375 4.7998046875 2.1162109375 4.7998046875 c 0
 2.1162109375 3.17578125 3.43359375 1.857421875 5.0576171875 1.857421875 c 0
 5.0576171875 1.857421875 5.0576171875 1.857421875 5.0576171875 1.857421875 c 0
 5.0576171875 1.857421875 5.0576171875 1.857421875 5.0576171875 1.857421875 c 0
 6.681640625 1.857421875 8 3.17578125 8 4.7998046875 c 0
 8 4.7998046875 8 4.7998046875 8 4.7998046875 c 0
 8 6.423828125 6.681640625 7.7421875 5.0576171875 7.7421875 c 0
 5.0576171875 7.7421875 5.0576171875 7.7421875 5.0576171875 7.7421875 c 0
EndSplineSet
EndChar

StartChar: Oacute
Encoding: 211 211 96
Width: 16
VWidth: 0
Flags: HW
LayerCount: 2
Fore
SplineSet
5.0576171875 9.560546875 m 0
 7.685546875 9.560546875 9.818359375 7.427734375 9.818359375 4.7998046875 c 0
 9.818359375 4.7998046875 9.818359375 4.7998046875 9.818359375 4.7998046875 c 0
 9.818359375 2.171875 7.685546875 0.0390625 5.0576171875 0.0390625 c 0
 5.0576171875 0.0390625 5.0576171875 0.0390625 5.0576171875 0.0390625 c 0
 2.4306640625 0.0390625 0.2978515625 2.171875 0.2978515625 4.7998046875 c 0
 0.2978515625 4.7998046875 0.2978515625 4.7998046875 0.2978515625 4.7998046875 c 0
 0.2978515625 7.427734375 2.4306640625 9.560546875 5.0576171875 9.560546875 c 0
 5.0576171875 9.560546875 5.0576171875 9.560546875 5.0576171875 9.560546875 c 0
5.0576171875 7.7421875 m 0
 5.0576171875 7.7421875 5.0576171875 7.7421875 5.0576171875 7.7421875 c 0
 3.43359375 7.7421875 2.1162109375 6.423828125 2.1162109375 4.7998046875 c 0
 2.1162109375 4.7998046875 2.1162109375 4.7998046875 2.1162109375 4.7998046875 c 0
 2.1162109375 3.17578125 3.43359375 1.857421875 5.0576171875 1.857421875 c 0
 5.0576171875 1.857421875 5.0576171875 1.857421875 5.0576171875 1.857421875 c 0
 5.0576171875 1.857421875 5.0576171875 1.857421875 5.0576171875 1.857421875 c 0
 6.681640625 1.857421875 8 3.17578125 8 4.7998046875 c 0
 8 4.7998046875 8 4.7998046875 8 4.7998046875 c 0
 8 6.423828125 6.681640625 7.7421875 5.0576171875 7.7421875 c 0
 5.0576171875 7.7421875 5.0576171875 7.7421875 5.0576171875 7.7421875 c 0
EndSplineSet
EndChar

StartChar: Ograve
Encoding: 210 210 97
Width: 16
VWidth: 0
Flags: HW
LayerCount: 2
Fore
SplineSet
5.0576171875 9.560546875 m 0
 7.685546875 9.560546875 9.818359375 7.427734375 9.818359375 4.7998046875 c 0
 9.818359375 4.7998046875 9.818359375 4.7998046875 9.818359375 4.7998046875 c 0
 9.818359375 2.171875 7.685546875 0.0390625 5.0576171875 0.0390625 c 0
 5.0576171875 0.0390625 5.0576171875 0.0390625 5.0576171875 0.0390625 c 0
 2.4306640625 0.0390625 0.2978515625 2.171875 0.2978515625 4.7998046875 c 0
 0.2978515625 4.7998046875 0.2978515625 4.7998046875 0.2978515625 4.7998046875 c 0
 0.2978515625 7.427734375 2.4306640625 9.560546875 5.0576171875 9.560546875 c 0
 5.0576171875 9.560546875 5.0576171875 9.560546875 5.0576171875 9.560546875 c 0
5.0576171875 7.7421875 m 0
 5.0576171875 7.7421875 5.0576171875 7.7421875 5.0576171875 7.7421875 c 0
 3.43359375 7.7421875 2.1162109375 6.423828125 2.1162109375 4.7998046875 c 0
 2.1162109375 4.7998046875 2.1162109375 4.7998046875 2.1162109375 4.7998046875 c 0
 2.1162109375 3.17578125 3.43359375 1.857421875 5.0576171875 1.857421875 c 0
 5.0576171875 1.857421875 5.0576171875 1.857421875 5.0576171875 1.857421875 c 0
 5.0576171875 1.857421875 5.0576171875 1.857421875 5.0576171875 1.857421875 c 0
 6.681640625 1.857421875 8 3.17578125 8 4.7998046875 c 0
 8 4.7998046875 8 4.7998046875 8 4.7998046875 c 0
 8 6.423828125 6.681640625 7.7421875 5.0576171875 7.7421875 c 0
 5.0576171875 7.7421875 5.0576171875 7.7421875 5.0576171875 7.7421875 c 0
EndSplineSet
EndChar

StartChar: Otilde
Encoding: 213 213 98
Width: 16
VWidth: 0
Flags: HW
LayerCount: 2
Fore
SplineSet
5.0576171875 9.560546875 m 0
 7.685546875 9.560546875 9.818359375 7.427734375 9.818359375 4.7998046875 c 0
 9.818359375 4.7998046875 9.818359375 4.7998046875 9.818359375 4.7998046875 c 0
 9.818359375 2.171875 7.685546875 0.0390625 5.0576171875 0.0390625 c 0
 5.0576171875 0.0390625 5.0576171875 0.0390625 5.0576171875 0.0390625 c 0
 2.4306640625 0.0390625 0.2978515625 2.171875 0.2978515625 4.7998046875 c 0
 0.2978515625 4.7998046875 0.2978515625 4.7998046875 0.2978515625 4.7998046875 c 0
 0.2978515625 7.427734375 2.4306640625 9.560546875 5.0576171875 9.560546875 c 0
 5.0576171875 9.560546875 5.0576171875 9.560546875 5.0576171875 9.560546875 c 0
5.0576171875 7.7421875 m 0
 5.0576171875 7.7421875 5.0576171875 7.7421875 5.0576171875 7.7421875 c 0
 3.43359375 7.7421875 2.1162109375 6.423828125 2.1162109375 4.7998046875 c 0
 2.1162109375 4.7998046875 2.1162109375 4.7998046875 2.1162109375 4.7998046875 c 0
 2.1162109375 3.17578125 3.43359375 1.857421875 5.0576171875 1.857421875 c 0
 5.0576171875 1.857421875 5.0576171875 1.857421875 5.0576171875 1.857421875 c 0
 5.0576171875 1.857421875 5.0576171875 1.857421875 5.0576171875 1.857421875 c 0
 6.681640625 1.857421875 8 3.17578125 8 4.7998046875 c 0
 8 4.7998046875 8 4.7998046875 8 4.7998046875 c 0
 8 6.423828125 6.681640625 7.7421875 5.0576171875 7.7421875 c 0
 5.0576171875 7.7421875 5.0576171875 7.7421875 5.0576171875 7.7421875 c 0
EndSplineSet
EndChar

StartChar: Odieresis
Encoding: 214 214 99
Width: 16
VWidth: 0
Flags: HW
LayerCount: 2
Fore
SplineSet
5.0576171875 9.560546875 m 0
 7.685546875 9.560546875 9.818359375 7.427734375 9.818359375 4.7998046875 c 0
 9.818359375 4.7998046875 9.818359375 4.7998046875 9.818359375 4.7998046875 c 0
 9.818359375 2.171875 7.685546875 0.0390625 5.0576171875 0.0390625 c 0
 5.0576171875 0.0390625 5.0576171875 0.0390625 5.0576171875 0.0390625 c 0
 2.4306640625 0.0390625 0.2978515625 2.171875 0.2978515625 4.7998046875 c 0
 0.2978515625 4.7998046875 0.2978515625 4.7998046875 0.2978515625 4.7998046875 c 0
 0.2978515625 7.427734375 2.4306640625 9.560546875 5.0576171875 9.560546875 c 0
 5.0576171875 9.560546875 5.0576171875 9.560546875 5.0576171875 9.560546875 c 0
5.0576171875 7.7421875 m 0
 5.0576171875 7.7421875 5.0576171875 7.7421875 5.0576171875 7.7421875 c 0
 3.43359375 7.7421875 2.1162109375 6.423828125 2.1162109375 4.7998046875 c 0
 2.1162109375 4.7998046875 2.1162109375 4.7998046875 2.1162109375 4.7998046875 c 0
 2.1162109375 3.17578125 3.43359375 1.857421875 5.0576171875 1.857421875 c 0
 5.0576171875 1.857421875 5.0576171875 1.857421875 5.0576171875 1.857421875 c 0
 5.0576171875 1.857421875 5.0576171875 1.857421875 5.0576171875 1.857421875 c 0
 6.681640625 1.857421875 8 3.17578125 8 4.7998046875 c 0
 8 4.7998046875 8 4.7998046875 8 4.7998046875 c 0
 8 6.423828125 6.681640625 7.7421875 5.0576171875 7.7421875 c 0
 5.0576171875 7.7421875 5.0576171875 7.7421875 5.0576171875 7.7421875 c 0
EndSplineSet
EndChar

StartChar: Oslash
Encoding: 216 216 100
Width: 16
VWidth: 0
Flags: HW
LayerCount: 2
Fore
SplineSet
5.0576171875 9.560546875 m 0
 7.685546875 9.560546875 9.818359375 7.427734375 9.818359375 4.7998046875 c 0
 9.818359375 4.7998046875 9.818359375 4.7998046875 9.818359375 4.7998046875 c 0
 9.818359375 2.171875 7.685546875 0.0390625 5.0576171875 0.0390625 c 0
 5.0576171875 0.0390625 5.0576171875 0.0390625 5.0576171875 0.0390625 c 0
 2.4306640625 0.0390625 0.2978515625 2.171875 0.2978515625 4.7998046875 c 0
 0.2978515625 4.7998046875 0.2978515625 4.7998046875 0.2978515625 4.7998046875 c 0
 0.2978515625 7.427734375 2.4306640625 9.560546875 5.0576171875 9.560546875 c 0
 5.0576171875 9.560546875 5.0576171875 9.560546875 5.0576171875 9.560546875 c 0
5.0576171875 7.7421875 m 0
 5.0576171875 7.7421875 5.0576171875 7.7421875 5.0576171875 7.7421875 c 0
 3.43359375 7.7421875 2.1162109375 6.423828125 2.1162109375 4.7998046875 c 0
 2.1162109375 4.7998046875 2.1162109375 4.7998046875 2.1162109375 4.7998046875 c 0
 2.1162109375 3.17578125 3.43359375 1.857421875 5.0576171875 1.857421875 c 0
 5.0576171875 1.857421875 5.0576171875 1.857421875 5.0576171875 1.857421875 c 0
 5.0576171875 1.857421875 5.0576171875 1.857421875 5.0576171875 1.857421875 c 0
 6.681640625 1.857421875 8 3.17578125 8 4.7998046875 c 0
 8 4.7998046875 8 4.7998046875 8 4.7998046875 c 0
 8 6.423828125 6.681640625 7.7421875 5.0576171875 7.7421875 c 0
 5.0576171875 7.7421875 5.0576171875 7.7421875 5.0576171875 7.7421875 c 0
EndSplineSet
EndChar

StartChar: multiply
Encoding: 215 215 101
Width: 16
VWidth: 0
Flags: HW
LayerCount: 2
Fore
SplineSet
8.9091796875 9.560546875 m 0
 9.3984375 9.5712890625 9.8291015625 9.140625 9.818359375 8.6513671875 c 0
 9.8232421875 8.408203125 9.71875 8.17578125 9.552734375 8.0087890625 c 0
 8.6474609375 7.103515625 7.248046875 5.705078125 6.34375 4.7998046875 c 1
 7.22265625 3.9208984375 8.673828125 2.4697265625 9.552734375 1.591796875 c 0
 9.71875 1.423828125 9.8232421875 1.1923828125 9.818359375 0.9482421875 c 0
 9.8291015625 0.4599609375 9.3984375 0.029296875 8.9091796875 0.0390625 c 0
 8.6650390625 0.0341796875 8.43359375 0.138671875 8.2666015625 0.3056640625 c 0
 7.4462890625 1.1259765625 5.8779296875 2.6943359375 5.0576171875 3.5146484375 c 1
 4.1357421875 2.591796875 2.771484375 1.2275390625 1.849609375 0.3056640625 c 0
 1.681640625 0.1376953125 1.4521484375 0.0341796875 1.20703125 0.0390625 c 0
 0.7177734375 0.029296875 0.287109375 0.4599609375 0.2978515625 0.9482421875 c 0
 0.2919921875 1.197265625 0.3916015625 1.423828125 0.5634765625 1.591796875 c 2
 3.7724609375 4.7998046875 l 1
 0.5634765625 8.0087890625 l 2
 0.39453125 8.17578125 0.2919921875 8.4052734375 0.2978515625 8.6513671875 c 0
 0.287109375 9.140625 0.7177734375 9.5712890625 1.20703125 9.560546875 c 0
 1.4521484375 9.5654296875 1.681640625 9.462890625 1.849609375 9.2939453125 c 2
 5.0576171875 6.0859375 l 1
 5.986328125 7.013671875 7.3388671875 8.3662109375 8.2666015625 9.2939453125 c 0
 8.4345703125 9.462890625 8.6640625 9.5654296875 8.9091796875 9.560546875 c 0
EndSplineSet
EndChar

StartChar: eth
Encoding: 240 240 102
Width: 16
VWidth: 0
Flags: HW
LayerCount: 2
Fore
SplineSet
5.0576171875 9.560546875 m 0
 7.685546875 9.560546875 9.818359375 7.427734375 9.818359375 4.7998046875 c 0
 9.818359375 4.7998046875 9.818359375 4.7998046875 9.818359375 4.7998046875 c 0
 9.818359375 2.171875 7.685546875 0.0390625 5.0576171875 0.0390625 c 0
 5.0576171875 0.0390625 5.0576171875 0.0390625 5.0576171875 0.0390625 c 0
 2.4306640625 0.0390625 0.2978515625 2.171875 0.2978515625 4.7998046875 c 0
 0.2978515625 4.7998046875 0.2978515625 4.7998046875 0.2978515625 4.7998046875 c 0
 0.2978515625 7.427734375 2.4306640625 9.560546875 5.0576171875 9.560546875 c 0
 5.0576171875 9.560546875 5.0576171875 9.560546875 5.0576171875 9.560546875 c 0
5.0576171875 7.7421875 m 0
 5.0576171875 7.7421875 5.0576171875 7.7421875 5.0576171875 7.7421875 c 0
 3.43359375 7.7421875 2.1162109375 6.423828125 2.1162109375 4.7998046875 c 0
 2.1162109375 4.7998046875 2.1162109375 4.7998046875 2.1162109375 4.7998046875 c 0
 2.1162109375 3.17578125 3.43359375 1.857421875 5.0576171875 1.857421875 c 0
 5.0576171875 1.857421875 5.0576171875 1.857421875 5.0576171875 1.857421875 c 0
 5.0576171875 1.857421875 5.0576171875 1.857421875 5.0576171875 1.857421875 c 0
 6.681640625 1.857421875 8 3.17578125 8 4.7998046875 c 0
 8 4.7998046875 8 4.7998046875 8 4.7998046875 c 0
 8 6.423828125 6.681640625 7.7421875 5.0576171875 7.7421875 c 0
 5.0576171875 7.7421875 5.0576171875 7.7421875 5.0576171875 7.7421875 c 0
EndSplineSet
EndChar

StartChar: ntilde
Encoding: 241 241 103
Width: 16
VWidth: 0
Flags: HW
LayerCount: 2
Fore
SplineSet
0.2978515625 8.6513671875 m 2
 0.2978515625 9.1533203125 0.7041015625 9.560546875 1.20703125 9.560546875 c 0
 1.708984375 9.560546875 2.1162109375 9.1533203125 2.1162109375 8.6513671875 c 2
 2.1162109375 8.54296875 l 1
 2.92578125 9.1806640625 3.947265625 9.560546875 5.0576171875 9.560546875 c 0
 7.6875 9.560546875 9.818359375 7.4287109375 9.818359375 4.7998046875 c 2
 9.818359375 0.9482421875 l 2
 9.818359375 0.4462890625 9.4111328125 0.0390625 8.9091796875 0.0390625 c 0
 8.4072265625 0.0390625 8 0.4462890625 8 0.9482421875 c 2
 8 4.7998046875 l 2
 8 6.4248046875 6.6826171875 7.7421875 5.0576171875 7.7421875 c 0
 3.4326171875 7.7421875 2.1162109375 6.4248046875 2.1162109375 4.7998046875 c 2
 2.1162109375 0.9482421875 l 2
 2.1162109375 0.4462890625 1.708984375 0.0390625 1.20703125 0.0390625 c 0
 0.7041015625 0.0390625 0.2978515625 0.4462890625 0.2978515625 0.9482421875 c 2
 0.2978515625 6.2705078125 l 1
 0.2978515625 8.6513671875 l 2
EndSplineSet
EndChar

StartChar: Ccedilla
Encoding: 199 199 104
Width: 16
VWidth: 0
Flags: HW
LayerCount: 2
Fore
SplineSet
1.69140625 1.6337890625 m 0
 -0.1669921875 3.4931640625 -0.1669921875 6.5068359375 1.69140625 8.3662109375 c 0
 3.55078125 10.2255859375 6.5654296875 10.2255859375 8.423828125 8.3662109375 c 0
 8.779296875 8.0107421875 8.779296875 7.435546875 8.423828125 7.080078125 c 0
 8.0693359375 6.7255859375 7.4931640625 6.7255859375 7.138671875 7.080078125 c 0
 5.9892578125 8.2294921875 4.126953125 8.2294921875 2.9775390625 7.080078125 c 0
 1.828125 5.931640625 1.828125 4.068359375 2.9775390625 2.919921875 c 0
 4.126953125 1.7705078125 5.9892578125 1.7705078125 7.138671875 2.919921875 c 0
 7.4931640625 3.2744140625 8.0693359375 3.2744140625 8.423828125 2.919921875 c 0
 8.779296875 2.564453125 8.779296875 1.9892578125 8.423828125 1.6337890625 c 0
 6.5654296875 -0.2255859375 3.55078125 -0.2255859375 1.69140625 1.6337890625 c 0
EndSplineSet
EndChar

StartChar: yacute
Encoding: 253 253 105
Width: 16
VWidth: 0
Flags: HW
LayerCount: 2
Fore
SplineSet
9.818359375 1.8583984375 m 2
 9.818359375 -0.771484375 7.6875 -2.90234375 5.0576171875 -2.90234375 c 0
 4.5556640625 -2.90234375 4.1484375 -2.4951171875 4.1484375 -1.9931640625 c 0
 4.1484375 -1.4912109375 4.5556640625 -1.083984375 5.0576171875 -1.083984375 c 0
 6.365234375 -1.083984375 7.4736328125 -0.23046875 7.857421875 0.94921875 c 1
 7.0712890625 0.376953125 6.1044921875 0.0390625 5.0576171875 0.0390625 c 0
 2.4287109375 0.0390625 0.2978515625 2.1708984375 0.2978515625 4.7998046875 c 2
 0.2978515625 8.6513671875 l 2
 0.2978515625 9.1533203125 0.7041015625 9.560546875 1.20703125 9.560546875 c 0
 1.708984375 9.560546875 2.1162109375 9.1533203125 2.1162109375 8.6513671875 c 2
 2.1162109375 4.7998046875 l 2
 2.1162109375 3.1748046875 3.43359375 1.857421875 5.0576171875 1.857421875 c 0
 6.6826171875 1.857421875 8 3.1748046875 8 4.7998046875 c 2
 8 8.6513671875 l 2
 8 9.1533203125 8.4072265625 9.560546875 8.9091796875 9.560546875 c 0
 9.4111328125 9.560546875 9.818359375 9.1533203125 9.818359375 8.6513671875 c 2
 9.818359375 5.2548828125 l 1
 9.818359375 1.8583984375 l 2
EndSplineSet
EndChar

StartChar: ydieresis
Encoding: 255 255 106
Width: 16
VWidth: 0
Flags: HW
LayerCount: 2
Fore
SplineSet
9.818359375 1.8583984375 m 2
 9.818359375 -0.771484375 7.6875 -2.90234375 5.0576171875 -2.90234375 c 0
 4.5556640625 -2.90234375 4.1484375 -2.4951171875 4.1484375 -1.9931640625 c 0
 4.1484375 -1.4912109375 4.5556640625 -1.083984375 5.0576171875 -1.083984375 c 0
 6.365234375 -1.083984375 7.4736328125 -0.23046875 7.857421875 0.94921875 c 1
 7.0712890625 0.376953125 6.1044921875 0.0390625 5.0576171875 0.0390625 c 0
 2.4287109375 0.0390625 0.2978515625 2.1708984375 0.2978515625 4.7998046875 c 2
 0.2978515625 8.6513671875 l 2
 0.2978515625 9.1533203125 0.7041015625 9.560546875 1.20703125 9.560546875 c 0
 1.708984375 9.560546875 2.1162109375 9.1533203125 2.1162109375 8.6513671875 c 2
 2.1162109375 4.7998046875 l 2
 2.1162109375 3.1748046875 3.43359375 1.857421875 5.0576171875 1.857421875 c 0
 6.6826171875 1.857421875 8 3.1748046875 8 4.7998046875 c 2
 8 8.6513671875 l 2
 8 9.1533203125 8.4072265625 9.560546875 8.9091796875 9.560546875 c 0
 9.4111328125 9.560546875 9.818359375 9.1533203125 9.818359375 8.6513671875 c 2
 9.818359375 5.2548828125 l 1
 9.818359375 1.8583984375 l 2
EndSplineSet
EndChar

StartChar: Yacute
Encoding: 221 221 107
Width: 16
VWidth: 0
Flags: HW
LayerCount: 2
Fore
SplineSet
9.818359375 1.8583984375 m 2
 9.818359375 -0.771484375 7.6875 -2.90234375 5.0576171875 -2.90234375 c 0
 4.5556640625 -2.90234375 4.1484375 -2.4951171875 4.1484375 -1.9931640625 c 0
 4.1484375 -1.4912109375 4.5556640625 -1.083984375 5.0576171875 -1.083984375 c 0
 6.365234375 -1.083984375 7.4736328125 -0.23046875 7.857421875 0.94921875 c 1
 7.0712890625 0.376953125 6.1044921875 0.0390625 5.0576171875 0.0390625 c 0
 2.4287109375 0.0390625 0.2978515625 2.1708984375 0.2978515625 4.7998046875 c 2
 0.2978515625 8.6513671875 l 2
 0.2978515625 9.1533203125 0.7041015625 9.560546875 1.20703125 9.560546875 c 0
 1.708984375 9.560546875 2.1162109375 9.1533203125 2.1162109375 8.6513671875 c 2
 2.1162109375 4.7998046875 l 2
 2.1162109375 3.1748046875 3.43359375 1.857421875 5.0576171875 1.857421875 c 0
 6.6826171875 1.857421875 8 3.1748046875 8 4.7998046875 c 2
 8 8.6513671875 l 2
 8 9.1533203125 8.4072265625 9.560546875 8.9091796875 9.560546875 c 0
 9.4111328125 9.560546875 9.818359375 9.1533203125 9.818359375 8.6513671875 c 2
 9.818359375 5.2548828125 l 1
 9.818359375 1.8583984375 l 2
EndSplineSet
EndChar

StartChar: oslash
Encoding: 248 248 108
Width: 16
VWidth: 0
Flags: HW
LayerCount: 2
Fore
SplineSet
5.0576171875 9.560546875 m 0
 7.685546875 9.560546875 9.818359375 7.427734375 9.818359375 4.7998046875 c 0
 9.818359375 4.7998046875 9.818359375 4.7998046875 9.818359375 4.7998046875 c 0
 9.818359375 2.171875 7.685546875 0.0390625 5.0576171875 0.0390625 c 0
 5.0576171875 0.0390625 5.0576171875 0.0390625 5.0576171875 0.0390625 c 0
 2.4306640625 0.0390625 0.2978515625 2.171875 0.2978515625 4.7998046875 c 0
 0.2978515625 4.7998046875 0.2978515625 4.7998046875 0.2978515625 4.7998046875 c 0
 0.2978515625 7.427734375 2.4306640625 9.560546875 5.0576171875 9.560546875 c 0
 5.0576171875 9.560546875 5.0576171875 9.560546875 5.0576171875 9.560546875 c 0
5.0576171875 7.7421875 m 0
 5.0576171875 7.7421875 5.0576171875 7.7421875 5.0576171875 7.7421875 c 0
 3.43359375 7.7421875 2.1162109375 6.423828125 2.1162109375 4.7998046875 c 0
 2.1162109375 4.7998046875 2.1162109375 4.7998046875 2.1162109375 4.7998046875 c 0
 2.1162109375 3.17578125 3.43359375 1.857421875 5.0576171875 1.857421875 c 0
 5.0576171875 1.857421875 5.0576171875 1.857421875 5.0576171875 1.857421875 c 0
 5.0576171875 1.857421875 5.0576171875 1.857421875 5.0576171875 1.857421875 c 0
 6.681640625 1.857421875 8 3.17578125 8 4.7998046875 c 0
 8 4.7998046875 8 4.7998046875 8 4.7998046875 c 0
 8 6.423828125 6.681640625 7.7421875 5.0576171875 7.7421875 c 0
 5.0576171875 7.7421875 5.0576171875 7.7421875 5.0576171875 7.7421875 c 0
EndSplineSet
EndChar

StartChar: Ntilde
Encoding: 209 209 109
Width: 16
VWidth: 0
Flags: HW
LayerCount: 2
Fore
SplineSet
0.2978515625 8.6513671875 m 2
 0.2978515625 9.1533203125 0.7041015625 9.560546875 1.20703125 9.560546875 c 0
 1.708984375 9.560546875 2.1162109375 9.1533203125 2.1162109375 8.6513671875 c 2
 2.1162109375 8.54296875 l 1
 2.92578125 9.1806640625 3.947265625 9.560546875 5.0576171875 9.560546875 c 0
 7.6875 9.560546875 9.818359375 7.4287109375 9.818359375 4.7998046875 c 2
 9.818359375 0.9482421875 l 2
 9.818359375 0.4462890625 9.4111328125 0.0390625 8.9091796875 0.0390625 c 0
 8.4072265625 0.0390625 8 0.4462890625 8 0.9482421875 c 2
 8 4.7998046875 l 2
 8 6.4248046875 6.6826171875 7.7421875 5.0576171875 7.7421875 c 0
 3.4326171875 7.7421875 2.1162109375 6.4248046875 2.1162109375 4.7998046875 c 2
 2.1162109375 0.9482421875 l 2
 2.1162109375 0.4462890625 1.708984375 0.0390625 1.20703125 0.0390625 c 0
 0.7041015625 0.0390625 0.2978515625 0.4462890625 0.2978515625 0.9482421875 c 2
 0.2978515625 6.2705078125 l 1
 0.2978515625 8.6513671875 l 2
EndSplineSet
EndChar
